<svg xmlns="http://www.w3.org/2000/svg" width="920" height="520" viewBox="0 0 920 520">
  <rect width="100%" height="100%" fill="#ffffff"/>
  <text x="70" y="30" font-size="20" font-family="Arial, sans-serif" fill="#111827">PI-NAS 8x8 beam synthesis, theta0=-30 deg</text>
  <g font-family="Arial, sans-serif">
    <line x1="70.0" y1="50" x2="70.0" y2="455" stroke="#e5e7eb"/><text x="70.0" y="485" text-anchor="middle" font-size="13" fill="#374151">-90</text><line x1="207.5" y1="50" x2="207.5" y2="455" stroke="#e5e7eb"/><text x="207.5" y="485" text-anchor="middle" font-size="13" fill="#374151">-60</text><line x1="345.0" y1="50" x2="345.0" y2="455" stroke="#e5e7eb"/><text x="345.0" y="485" text-anchor="middle" font-size="13" fill="#374151">-30</text><line x1="482.5" y1="50" x2="482.5" y2="455" stroke="#e5e7eb"/><text x="482.5" y="485" text-anchor="middle" font-size="13" fill="#374151">0</text><line x1="620.0" y1="50" x2="620.0" y2="455" stroke="#e5e7eb"/><text x="620.0" y="485" text-anchor="middle" font-size="13" fill="#374151">30</text><line x1="757.5" y1="50" x2="757.5" y2="455" stroke="#e5e7eb"/><text x="757.5" y="485" text-anchor="middle" font-size="13" fill="#374151">60</text><line x1="895.0" y1="50" x2="895.0" y2="455" stroke="#e5e7eb"/><text x="895.0" y="485" text-anchor="middle" font-size="13" fill="#374151">90</text><line x1="70" y1="455.0" x2="895" y2="455.0" stroke="#e5e7eb"/><text x="58" y="459.0" text-anchor="end" font-size="13" fill="#374151">-60</text><line x1="70" y1="389.7" x2="895" y2="389.7" stroke="#e5e7eb"/><text x="58" y="393.7" text-anchor="end" font-size="13" fill="#374151">-50</text><line x1="70" y1="324.4" x2="895" y2="324.4" stroke="#e5e7eb"/><text x="58" y="328.4" text-anchor="end" font-size="13" fill="#374151">-40</text><line x1="70" y1="259.0" x2="895" y2="259.0" stroke="#e5e7eb"/><text x="58" y="263.0" text-anchor="end" font-size="13" fill="#374151">-30</text><line x1="70" y1="193.7" x2="895" y2="193.7" stroke="#e5e7eb"/><text x="58" y="197.7" text-anchor="end" font-size="13" fill="#374151">-20</text><line x1="70" y1="128.4" x2="895" y2="128.4" stroke="#e5e7eb"/><text x="58" y="132.4" text-anchor="end" font-size="13" fill="#374151">-10</text><line x1="70" y1="63.1" x2="895" y2="63.1" stroke="#e5e7eb"/><text x="58" y="67.1" text-anchor="end" font-size="13" fill="#374151">0</text>
    <line x1="70" y1="455" x2="895" y2="455" stroke="#111827" stroke-width="1.2"/>
    <line x1="70" y1="50" x2="70" y2="455" stroke="#111827" stroke-width="1.2"/>
    <line x1="345.00" y1="50" x2="345.00" y2="455" stroke="#ef4444" stroke-width="1.4" stroke-dasharray="6 5"/>
    <line x1="70" y1="193.71" x2="895" y2="193.71" stroke="#0f766e" stroke-width="1.4" stroke-dasharray="7 5"/>
    <polyline points="70.00,271.92 71.15,271.92 72.29,271.92 73.44,271.91 74.58,271.91 75.73,271.90 76.88,271.89 78.02,271.87 79.17,271.85 80.31,271.82 81.46,271.79 82.60,271.74 83.75,271.69 84.90,271.62 86.04,271.54 87.19,271.44 88.33,271.32 89.48,271.18 90.62,271.02 91.77,270.84 92.92,270.63 94.06,270.38 95.21,270.11 96.35,269.80 97.50,269.46 98.65,269.07 99.79,268.65 100.94,268.19 102.08,267.68 103.23,267.13 104.38,266.53 105.52,265.89 106.67,265.20 107.81,264.46 108.96,263.68 110.10,262.86 111.25,261.99 112.40,261.07 113.54,260.12 114.69,259.12 115.83,258.09 116.98,257.02 118.12,255.92 119.27,254.79 120.42,253.63 121.56,252.44 122.71,251.23 123.85,249.99 125.00,248.74 126.15,247.47 127.29,246.19 128.44,244.90 129.58,243.59 130.73,242.28 131.88,240.97 133.02,239.65 134.17,238.33 135.31,237.01 136.46,235.70 137.60,234.39 138.75,233.08 139.90,231.78 141.04,230.49 142.19,229.21 143.33,227.94 144.48,226.68 145.62,225.44 146.77,224.21 147.92,222.99 149.06,221.79 150.21,220.61 151.35,219.44 152.50,218.30 153.65,217.17 154.79,216.06 155.94,214.97 157.08,213.90 158.23,212.85 159.38,211.83 160.52,210.82 161.67,209.84 162.81,208.89 163.96,207.95 165.10,207.05 166.25,206.16 167.40,205.31 168.54,204.47 169.69,203.67 170.83,202.89 171.98,202.15 173.12,201.43 174.27,200.74 175.42,200.08 176.56,199.45 177.71,198.85 178.85,198.28 180.00,197.75 181.15,197.25 182.29,196.79 183.44,196.36 184.58,195.97 185.73,195.62 186.88,195.31 188.02,195.03 189.17,194.80 190.31,194.62 191.46,194.47 192.60,194.38 193.75,194.33 194.90,194.34 196.04,194.39 197.19,194.50 198.33,194.67 199.48,194.90 200.62,195.18 201.77,195.54 202.92,195.96 204.06,196.46 205.21,197.04 206.35,197.70 207.50,198.44 208.65,199.28 209.79,200.21 210.94,201.26 212.08,202.42 213.23,203.70 214.38,205.12 215.52,206.68 216.67,208.40 217.81,210.31 218.96,212.40 220.10,214.71 221.25,217.27 222.40,220.10 223.54,223.24 224.69,226.74 225.83,230.66 226.98,235.06 228.12,240.03 229.27,245.69 230.42,252.16 231.56,259.63 232.71,268.25 233.85,278.10 235.00,288.83 236.15,298.64 237.29,303.09 238.44,298.36 239.58,287.15 240.73,274.29 241.88,262.09 243.02,251.10 244.17,241.31 245.31,232.53 246.46,224.62 247.60,217.41 248.75,210.80 249.90,204.69 251.04,199.02 252.19,193.71 253.33,188.72 254.48,184.02 255.62,179.57 256.77,175.34 257.92,171.32 259.06,167.47 260.21,163.80 261.35,160.27 262.50,156.88 263.65,153.62 264.79,150.48 265.94,147.45 267.08,144.53 268.23,141.70 269.38,138.96 270.52,136.31 271.67,133.74 272.81,131.24 273.96,128.82 275.10,126.47 276.25,124.18 277.40,121.96 278.54,119.80 279.69,117.70 280.83,115.66 281.98,113.67 283.12,111.73 284.27,109.84 285.42,108.01 286.56,106.22 287.71,104.48 288.85,102.78 290.00,101.13 291.15,99.52 292.29,97.95 293.44,96.42 294.58,94.93 295.73,93.49 296.88,92.08 298.02,90.71 299.17,89.38 300.31,88.08 301.46,86.82 302.60,85.60 303.75,84.41 304.90,83.25 306.04,82.13 307.19,81.05 308.33,80.00 309.48,78.98 310.62,77.99 311.77,77.04 312.92,76.12 314.06,75.23 315.21,74.37 316.35,73.55 317.50,72.75 318.65,71.99 319.79,71.26 320.94,70.56 322.08,69.90 323.23,69.26 324.38,68.65 325.52,68.08 326.67,67.54 327.81,67.02 328.96,66.54 330.10,66.09 331.25,65.67 332.40,65.28 333.54,64.92 334.69,64.60 335.83,64.30 336.98,64.04 338.12,63.80 339.27,63.60 340.42,63.43 341.56,63.30 342.71,63.19 343.85,63.12 345.00,63.07 346.15,63.06 347.29,63.09 348.44,63.14 349.58,63.23 350.73,63.36 351.88,63.51 353.02,63.71 354.17,63.93 355.31,64.19 356.46,64.49 357.60,64.82 358.75,65.19 359.90,65.59 361.04,66.03 362.19,66.51 363.33,67.02 364.48,67.57 365.62,68.16 366.77,68.80 367.92,69.47 369.06,70.18 370.21,70.93 371.35,71.73 372.50,72.56 373.65,73.45 374.79,74.37 375.94,75.34 377.08,76.36 378.23,77.42 379.38,78.54 380.52,79.70 381.67,80.91 382.81,82.17 383.96,83.49 385.10,84.86 386.25,86.29 387.40,87.77 388.54,89.32 389.69,90.92 390.83,92.59 391.98,94.32 393.12,96.12 394.27,97.99 395.42,99.93 396.56,101.95 397.71,104.04 398.85,106.22 400.00,108.48 401.15,110.83 402.29,113.28 403.44,115.82 404.58,118.46 405.73,121.21 406.88,124.08 408.02,127.07 409.17,130.18 410.31,133.44 411.46,136.84 412.60,140.40 413.75,144.13 414.90,148.04 416.04,152.15 417.19,156.47 418.33,161.03 419.48,165.84 420.62,170.93 421.77,176.33 422.92,182.06 424.06,188.15 425.21,194.63 426.35,201.50 427.50,208.75 428.65,216.30 429.79,223.97 430.94,231.39 432.08,237.93 433.23,242.72 434.38,245.00 435.52,244.55 436.67,241.89 437.81,237.90 438.96,233.35 440.10,228.75 441.25,224.39 442.40,220.38 443.54,216.79 444.69,213.60 445.83,210.81 446.98,208.40 448.12,206.33 449.27,204.59 450.42,203.15 451.56,202.00 452.71,201.11 453.85,200.47 455.00,200.07 456.15,199.89 457.29,199.94 458.44,200.20 459.58,200.66 460.73,201.33 461.88,202.20 463.02,203.26 464.17,204.52 465.31,205.97 466.46,207.62 467.60,209.45 468.75,211.48 469.90,213.70 471.04,216.10 472.19,218.68 473.33,221.43 474.48,224.32 475.62,227.33 476.77,230.42 477.92,233.53 479.06,236.57 480.21,239.46 481.35,242.05 482.50,244.21 483.65,245.79 484.79,246.68 485.94,246.81 487.08,246.18 488.23,244.86 489.38,242.98 490.52,240.67 491.67,238.06 492.81,235.30 493.96,232.47 495.10,229.65 496.25,226.89 497.40,224.24 498.54,221.72 499.69,219.33 500.83,217.10 501.98,215.03 503.12,213.11 504.27,211.34 505.42,209.72 506.56,208.25 507.71,206.93 508.85,205.74 510.00,204.68 511.15,203.75 512.29,202.94 513.44,202.25 514.58,201.67 515.73,201.20 516.88,200.84 518.02,200.57 519.17,200.40 520.31,200.32 521.46,200.32 522.60,200.40 523.75,200.56 524.90,200.78 526.04,201.07 527.19,201.41 528.33,201.80 529.48,202.23 530.62,202.70 531.77,203.19 532.92,203.70 534.06,204.22 535.21,204.73 536.35,205.24 537.50,205.73 538.65,206.19 539.79,206.61 540.94,206.98 542.08,207.30 543.23,207.56 544.38,207.76 545.52,207.89 546.67,207.95 547.81,207.95 548.96,207.87 550.10,207.73 551.25,207.53 552.40,207.27 553.54,206.97 554.69,206.63 555.83,206.26 556.98,205.87 558.12,205.46 559.27,205.05 560.42,204.64 561.56,204.25 562.71,203.87 563.85,203.52 565.00,203.21 566.15,202.93 567.29,202.70 568.44,202.52 569.58,202.40 570.73,202.34 571.88,202.34 573.02,202.41 574.17,202.55 575.31,202.77 576.46,203.07 577.60,203.44 578.75,203.90 579.90,204.45 581.04,205.08 582.19,205.81 583.33,206.63 584.48,207.55 585.62,208.56 586.77,209.67 587.92,210.88 589.06,212.19 590.21,213.61 591.35,215.13 592.50,216.74 593.65,218.46 594.79,220.27 595.94,222.17 597.08,224.15 598.23,226.19 599.38,228.29 600.52,230.41 601.67,232.52 602.81,234.60 603.96,236.60 605.10,238.45 606.25,240.11 607.40,241.50 608.54,242.57 609.69,243.26 610.83,243.52 611.98,243.35 613.12,242.74 614.27,241.73 615.42,240.35 616.56,238.66 617.71,236.73 618.85,234.63 620.00,232.40 621.15,230.10 622.29,227.77 623.44,225.45 624.58,223.16 625.73,220.92 626.88,218.75 628.02,216.66 629.17,214.65 630.31,212.74 631.46,210.92 632.60,209.20 633.75,207.58 634.90,206.05 636.04,204.62 637.19,203.29 638.33,202.05 639.48,200.91 640.62,199.86 641.77,198.90 642.92,198.03 644.06,197.24 645.21,196.54 646.35,195.93 647.50,195.40 648.65,194.96 649.79,194.60 650.94,194.31 652.08,194.11 653.23,193.99 654.38,193.95 655.52,193.99 656.67,194.11 657.81,194.31 658.96,194.58 660.10,194.94 661.25,195.38 662.40,195.90 663.54,196.50 664.69,197.19 665.83,197.96 666.98,198.81 668.12,199.76 669.27,200.79 670.42,201.92 671.56,203.14 672.71,204.46 673.85,205.88 675.00,207.40 676.15,209.03 677.29,210.78 678.44,212.64 679.58,214.62 680.73,216.73 681.88,218.98 683.02,221.37 684.17,223.91 685.31,226.60 686.46,229.46 687.60,232.49 688.75,235.70 689.90,239.09 691.04,242.67 692.19,246.43 693.33,250.37 694.48,254.46 695.62,258.65 696.77,262.88 697.92,267.01 699.06,270.88 700.21,274.26 701.35,276.88 702.50,278.48 703.65,278.87 704.79,278.01 705.94,276.04 707.08,273.18 708.23,269.71 709.38,265.88 710.52,261.89 711.67,257.88 712.81,253.94 713.96,250.14 715.10,246.49 716.25,243.01 717.40,239.72 718.54,236.61 719.69,233.67 720.83,230.90 721.98,228.29 723.12,225.82 724.27,223.50 725.42,221.32 726.56,219.26 727.71,217.32 728.85,215.49 730.00,213.77 731.15,212.15 732.29,210.63 733.44,209.19 734.58,207.85 735.73,206.58 736.88,205.39 738.02,204.28 739.17,203.24 740.31,202.26 741.46,201.35 742.60,200.51 743.75,199.72 744.90,198.99 746.04,198.32 747.19,197.70 748.33,197.14 749.48,196.62 750.62,196.16 751.77,195.74 752.92,195.37 754.06,195.04 755.21,194.76 756.35,194.51 757.50,194.31 758.65,194.15 759.79,194.03 760.94,193.95 762.08,193.90 763.23,193.89 764.38,193.92 765.52,193.98 766.67,194.08 767.81,194.21 768.96,194.37 770.10,194.56 771.25,194.79 772.40,195.05 773.54,195.34 774.69,195.65 775.83,196.00 776.98,196.38 778.12,196.79 779.27,197.22 780.42,197.69 781.56,198.18 782.71,198.69 783.85,199.24 785.00,199.81 786.15,200.41 787.29,201.03 788.44,201.68 789.58,202.36 790.73,203.06 791.88,203.78 793.02,204.53 794.17,205.30 795.31,206.10 796.46,206.92 797.60,207.76 798.75,208.63 799.90,209.51 801.04,210.42 802.19,211.36 803.33,212.31 804.48,213.29 805.62,214.28 806.77,215.30 807.92,216.34 809.06,217.39 810.21,218.47 811.35,219.57 812.50,220.68 813.65,221.81 814.79,222.96 815.94,224.12 817.08,225.30 818.23,226.50 819.38,227.71 820.52,228.93 821.67,230.17 822.81,231.42 823.96,232.68 825.10,233.94 826.25,235.22 827.40,236.50 828.54,237.79 829.69,239.08 830.83,240.38 831.98,241.67 833.12,242.96 834.27,244.25 835.42,245.54 836.56,246.82 837.71,248.08 838.85,249.34 840.00,250.58 841.15,251.80 842.29,253.00 843.44,254.18 844.58,255.33 845.73,256.46 846.88,257.55 848.02,258.62 849.17,259.64 850.31,260.63 851.46,261.58 852.60,262.49 853.75,263.36 854.90,264.18 856.04,264.95 857.19,265.68 858.33,266.36 859.48,267.00 860.62,267.59 861.77,268.13 862.92,268.63 864.06,269.08 865.21,269.49 866.35,269.85 867.50,270.18 868.65,270.47 869.79,270.73 870.94,270.95 872.08,271.14 873.23,271.31 874.38,271.45 875.52,271.56 876.67,271.66 877.81,271.73 878.96,271.80 880.10,271.84 881.25,271.88 882.40,271.90 883.54,271.92 884.69,271.93 885.83,271.93 886.98,271.93 888.12,271.93 889.27,271.93 890.42,271.93 891.56,271.92 892.71,271.92 893.85,271.92 895.00,271.92" fill="none" stroke="#2563eb" stroke-width="2.2"/>
    <text x="460.0" y="508" text-anchor="middle" font-size="15" fill="#111827">Theta (deg), phi=0 deg</text>
    <text x="18" y="260.0" transform="rotate(-90 18 260.0)" text-anchor="middle" font-size="15" fill="#111827">Normalized pattern (dB)</text>
    <text x="353.0" y="68" font-size="13" fill="#ef4444">target -30 deg</text>
    <text x="760" y="185.7" font-size="13" fill="#0f766e">SLL target -20 dB</text>
  </g>
</svg>
