<svg xmlns="http://www.w3.org/2000/svg" width="920" height="520" viewBox="0 0 920 520">
  <rect width="100%" height="100%" fill="#ffffff"/>
  <text x="70" y="30" font-size="20" font-family="Arial, sans-serif" fill="#111827">PI-NAS 8x8 beam synthesis, theta0=0 deg</text>
  <g font-family="Arial, sans-serif">
    <line x1="70.0" y1="50" x2="70.0" y2="455" stroke="#e5e7eb"/><text x="70.0" y="485" text-anchor="middle" font-size="13" fill="#374151">-90</text><line x1="207.5" y1="50" x2="207.5" y2="455" stroke="#e5e7eb"/><text x="207.5" y="485" text-anchor="middle" font-size="13" fill="#374151">-60</text><line x1="345.0" y1="50" x2="345.0" y2="455" stroke="#e5e7eb"/><text x="345.0" y="485" text-anchor="middle" font-size="13" fill="#374151">-30</text><line x1="482.5" y1="50" x2="482.5" y2="455" stroke="#e5e7eb"/><text x="482.5" y="485" text-anchor="middle" font-size="13" fill="#374151">0</text><line x1="620.0" y1="50" x2="620.0" y2="455" stroke="#e5e7eb"/><text x="620.0" y="485" text-anchor="middle" font-size="13" fill="#374151">30</text><line x1="757.5" y1="50" x2="757.5" y2="455" stroke="#e5e7eb"/><text x="757.5" y="485" text-anchor="middle" font-size="13" fill="#374151">60</text><line x1="895.0" y1="50" x2="895.0" y2="455" stroke="#e5e7eb"/><text x="895.0" y="485" text-anchor="middle" font-size="13" fill="#374151">90</text><line x1="70" y1="455.0" x2="895" y2="455.0" stroke="#e5e7eb"/><text x="58" y="459.0" text-anchor="end" font-size="13" fill="#374151">-60</text><line x1="70" y1="389.7" x2="895" y2="389.7" stroke="#e5e7eb"/><text x="58" y="393.7" text-anchor="end" font-size="13" fill="#374151">-50</text><line x1="70" y1="324.4" x2="895" y2="324.4" stroke="#e5e7eb"/><text x="58" y="328.4" text-anchor="end" font-size="13" fill="#374151">-40</text><line x1="70" y1="259.0" x2="895" y2="259.0" stroke="#e5e7eb"/><text x="58" y="263.0" text-anchor="end" font-size="13" fill="#374151">-30</text><line x1="70" y1="193.7" x2="895" y2="193.7" stroke="#e5e7eb"/><text x="58" y="197.7" text-anchor="end" font-size="13" fill="#374151">-20</text><line x1="70" y1="128.4" x2="895" y2="128.4" stroke="#e5e7eb"/><text x="58" y="132.4" text-anchor="end" font-size="13" fill="#374151">-10</text><line x1="70" y1="63.1" x2="895" y2="63.1" stroke="#e5e7eb"/><text x="58" y="67.1" text-anchor="end" font-size="13" fill="#374151">0</text>
    <line x1="70" y1="455" x2="895" y2="455" stroke="#111827" stroke-width="1.2"/>
    <line x1="70" y1="50" x2="70" y2="455" stroke="#111827" stroke-width="1.2"/>
    <line x1="482.50" y1="50" x2="482.50" y2="455" stroke="#ef4444" stroke-width="1.4" stroke-dasharray="6 5"/>
    <line x1="70" y1="193.71" x2="895" y2="193.71" stroke="#0f766e" stroke-width="1.4" stroke-dasharray="7 5"/>
    <polyline points="70.00,279.76 71.15,279.75 72.29,279.72 73.44,279.67 74.58,279.60 75.73,279.51 76.88,279.41 78.02,279.28 79.17,279.14 80.31,278.97 81.46,278.79 82.60,278.59 83.75,278.37 84.90,278.13 86.04,277.88 87.19,277.61 88.33,277.32 89.48,277.02 90.62,276.70 91.77,276.36 92.92,276.01 94.06,275.64 95.21,275.26 96.35,274.87 97.50,274.46 98.65,274.04 99.79,273.61 100.94,273.16 102.08,272.70 103.23,272.24 104.38,271.76 105.52,271.27 106.67,270.77 107.81,270.26 108.96,269.74 110.10,269.22 111.25,268.68 112.40,268.14 113.54,267.59 114.69,267.04 115.83,266.48 116.98,265.92 118.12,265.34 119.27,264.77 120.42,264.19 121.56,263.61 122.71,263.02 123.85,262.43 125.00,261.84 126.15,261.24 127.29,260.65 128.44,260.05 129.58,259.45 130.73,258.85 131.88,258.25 133.02,257.66 134.17,257.06 135.31,256.46 136.46,255.86 137.60,255.27 138.75,254.67 139.90,254.08 141.04,253.49 142.19,252.90 143.33,252.32 144.48,251.74 145.62,251.16 146.77,250.58 147.92,250.01 149.06,249.44 150.21,248.88 151.35,248.32 152.50,247.76 153.65,247.21 154.79,246.67 155.94,246.13 157.08,245.59 158.23,245.06 159.38,244.53 160.52,244.01 161.67,243.49 162.81,242.98 163.96,242.48 165.10,241.98 166.25,241.49 167.40,241.00 168.54,240.52 169.69,240.04 170.83,239.57 171.98,239.10 173.12,238.64 174.27,238.19 175.42,237.74 176.56,237.30 177.71,236.86 178.85,236.42 180.00,236.00 181.15,235.57 182.29,235.15 183.44,234.74 184.58,234.33 185.73,233.93 186.88,233.53 188.02,233.13 189.17,232.74 190.31,232.35 191.46,231.96 192.60,231.58 193.75,231.19 194.90,230.82 196.04,230.44 197.19,230.07 198.33,229.69 199.48,229.32 200.62,228.95 201.77,228.58 202.92,228.21 204.06,227.84 205.21,227.47 206.35,227.10 207.50,226.73 208.65,226.36 209.79,225.99 210.94,225.61 212.08,225.24 213.23,224.86 214.38,224.48 215.52,224.10 216.67,223.71 217.81,223.32 218.96,222.93 220.10,222.54 221.25,222.15 222.40,221.75 223.54,221.35 224.69,220.94 225.83,220.54 226.98,220.13 228.12,219.72 229.27,219.31 230.42,218.89 231.56,218.48 232.71,218.06 233.85,217.65 235.00,217.23 236.15,216.82 237.29,216.40 238.44,215.99 239.58,215.58 240.73,215.17 241.88,214.77 243.02,214.37 244.17,213.98 245.31,213.59 246.46,213.21 247.60,212.83 248.75,212.47 249.90,212.11 251.04,211.77 252.19,211.44 253.33,211.11 254.48,210.81 255.62,210.51 256.77,210.23 257.92,209.97 259.06,209.72 260.21,209.50 261.35,209.29 262.50,209.10 263.65,208.93 264.79,208.79 265.94,208.67 267.08,208.57 268.23,208.50 269.38,208.46 270.52,208.44 271.67,208.46 272.81,208.50 273.96,208.58 275.10,208.69 276.25,208.83 277.40,209.01 278.54,209.22 279.69,209.48 280.83,209.77 281.98,210.10 283.12,210.47 284.27,210.89 285.42,211.35 286.56,211.85 287.71,212.40 288.85,213.00 290.00,213.65 291.15,214.34 292.29,215.09 293.44,215.88 294.58,216.73 295.73,217.63 296.88,218.58 298.02,219.59 299.17,220.64 300.31,221.74 301.46,222.90 302.60,224.09 303.75,225.33 304.90,226.61 306.04,227.91 307.19,229.24 308.33,230.58 309.48,231.92 310.62,233.25 311.77,234.56 312.92,235.81 314.06,236.99 315.21,238.08 316.35,239.06 317.50,239.89 318.65,240.55 319.79,241.03 320.94,241.29 322.08,241.33 323.23,241.15 324.38,240.73 325.52,240.09 326.67,239.24 327.81,238.20 328.96,237.00 330.10,235.66 331.25,234.20 332.40,232.66 333.54,231.05 334.69,229.41 335.83,227.76 336.98,226.10 338.12,224.47 339.27,222.87 340.42,221.32 341.56,219.82 342.71,218.39 343.85,217.03 345.00,215.76 346.15,214.56 347.29,213.46 348.44,212.46 349.58,211.56 350.73,210.76 351.88,210.07 353.02,209.49 354.17,209.03 355.31,208.70 356.46,208.50 357.60,208.43 358.75,208.50 359.90,208.73 361.04,209.11 362.19,209.66 363.33,210.40 364.48,211.33 365.62,212.47 366.77,213.85 367.92,215.48 369.06,217.39 370.21,219.63 371.35,222.22 372.50,225.24 373.65,228.74 374.79,232.81 375.94,237.59 377.08,243.23 378.23,249.98 379.38,258.20 380.52,268.48 381.67,281.81 382.81,300.11 383.96,327.18 385.10,360.50 386.25,338.04 387.40,303.71 388.54,279.85 389.69,262.09 390.83,247.96 391.98,236.18 393.12,226.05 394.27,217.14 395.42,209.17 396.56,201.95 397.71,195.35 398.85,189.24 400.00,183.57 401.15,178.27 402.29,173.30 403.44,168.60 404.58,164.16 405.73,159.95 406.88,155.93 408.02,152.11 409.17,148.45 410.31,144.95 411.46,141.60 412.60,138.37 413.75,135.28 414.90,132.30 416.04,129.43 417.19,126.66 418.33,123.99 419.48,121.41 420.62,118.93 421.77,116.52 422.92,114.20 424.06,111.95 425.21,109.77 426.35,107.67 427.50,105.63 428.65,103.66 429.79,101.76 430.94,99.91 432.08,98.12 433.23,96.39 434.38,94.72 435.52,93.10 436.67,91.54 437.81,90.02 438.96,88.56 440.10,87.14 441.25,85.77 442.40,84.45 443.54,83.18 444.69,81.95 445.83,80.77 446.98,79.63 448.12,78.53 449.27,77.47 450.42,76.46 451.56,75.48 452.71,74.55 453.85,73.65 455.00,72.80 456.15,71.98 457.29,71.20 458.44,70.46 459.58,69.76 460.73,69.09 461.88,68.46 463.02,67.87 464.17,67.31 465.31,66.79 466.46,66.30 467.60,65.85 468.75,65.43 469.90,65.05 471.04,64.70 472.19,64.38 473.33,64.10 474.48,63.86 475.62,63.64 476.77,63.46 477.92,63.32 479.06,63.20 480.21,63.12 481.35,63.08 482.50,63.06 483.65,63.08 484.79,63.14 485.94,63.22 487.08,63.34 488.23,63.49 489.38,63.67 490.52,63.89 491.67,64.14 492.81,64.42 493.96,64.74 495.10,65.08 496.25,65.47 497.40,65.88 498.54,66.33 499.69,66.81 500.83,67.32 501.98,67.87 503.12,68.45 504.27,69.07 505.42,69.72 506.56,70.40 507.71,71.12 508.85,71.88 510.00,72.66 511.15,73.49 512.29,74.35 513.44,75.24 514.58,76.17 515.73,77.14 516.88,78.15 518.02,79.19 519.17,80.27 520.31,81.39 521.46,82.55 522.60,83.74 523.75,84.98 524.90,86.26 526.04,87.57 527.19,88.93 528.33,90.33 529.48,91.78 530.62,93.27 531.77,94.80 532.92,96.38 534.06,98.00 535.21,99.67 536.35,101.39 537.50,103.16 538.65,104.99 539.79,106.86 540.94,108.79 542.08,110.77 543.23,112.81 544.38,114.91 545.52,117.07 546.67,119.30 547.81,121.59 548.96,123.94 550.10,126.37 551.25,128.87 552.40,131.45 553.54,134.11 554.69,136.85 555.83,139.68 556.98,142.61 558.12,145.64 559.27,148.77 560.42,152.01 561.56,155.38 562.71,158.87 563.85,162.50 565.00,166.28 566.15,170.22 567.29,174.34 568.44,178.65 569.58,183.17 570.73,187.94 571.88,192.96 573.02,198.29 574.17,203.95 575.31,210.00 576.46,216.48 577.60,223.48 578.75,231.06 579.90,239.33 581.04,248.37 582.19,258.23 583.33,268.85 584.48,279.75 585.62,289.55 586.77,295.62 587.92,295.63 589.06,290.30 590.21,282.47 591.35,274.26 592.50,266.59 593.65,259.74 594.79,253.70 595.94,248.39 597.08,243.72 598.23,239.60 599.38,235.95 600.52,232.71 601.67,229.83 602.81,227.26 603.96,224.97 605.10,222.91 606.25,221.08 607.40,219.44 608.54,217.97 609.69,216.67 610.83,215.50 611.98,214.47 613.12,213.56 614.27,212.75 615.42,212.04 616.56,211.43 617.71,210.90 618.85,210.45 620.00,210.06 621.15,209.75 622.29,209.49 623.44,209.28 624.58,209.13 625.73,209.02 626.88,208.95 628.02,208.92 629.17,208.92 630.31,208.95 631.46,209.00 632.60,209.08 633.75,209.18 634.90,209.30 636.04,209.43 637.19,209.57 638.33,209.72 639.48,209.88 640.62,210.05 641.77,210.21 642.92,210.38 644.06,210.55 645.21,210.71 646.35,210.88 647.50,211.04 648.65,211.19 649.79,211.34 650.94,211.47 652.08,211.61 653.23,211.73 654.38,211.84 655.52,211.95 656.67,212.05 657.81,212.14 658.96,212.21 660.10,212.29 661.25,212.35 662.40,212.41 663.54,212.45 664.69,212.50 665.83,212.53 666.98,212.56 668.12,212.59 669.27,212.61 670.42,212.63 671.56,212.65 672.71,212.67 673.85,212.68 675.00,212.70 676.15,212.71 677.29,212.73 678.44,212.75 679.58,212.77 680.73,212.80 681.88,212.83 683.02,212.87 684.17,212.91 685.31,212.96 686.46,213.02 687.60,213.08 688.75,213.16 689.90,213.24 691.04,213.33 692.19,213.43 693.33,213.55 694.48,213.67 695.62,213.80 696.77,213.95 697.92,214.11 699.06,214.29 700.21,214.47 701.35,214.67 702.50,214.89 703.65,215.11 704.79,215.36 705.94,215.62 707.08,215.89 708.23,216.18 709.38,216.49 710.52,216.81 711.67,217.15 712.81,217.50 713.96,217.88 715.10,218.27 716.25,218.68 717.40,219.10 718.54,219.55 719.69,220.01 720.83,220.50 721.98,221.00 723.12,221.52 724.27,222.06 725.42,222.62 726.56,223.20 727.71,223.81 728.85,224.43 730.00,225.07 731.15,225.74 732.29,226.43 733.44,227.14 734.58,227.87 735.73,228.63 736.88,229.41 738.02,230.21 739.17,231.03 740.31,231.88 741.46,232.76 742.60,233.66 743.75,234.59 744.90,235.54 746.04,236.52 747.19,237.52 748.33,238.56 749.48,239.62 750.62,240.71 751.77,241.83 752.92,242.98 754.06,244.16 755.21,245.38 756.35,246.62 757.50,247.90 758.65,249.22 759.79,250.57 760.94,251.95 762.08,253.37 763.23,254.84 764.38,256.34 765.52,257.89 766.67,259.47 767.81,261.11 768.96,262.79 770.10,264.52 771.25,266.30 772.40,268.13 773.54,270.02 774.69,271.97 775.83,273.98 776.98,276.05 778.12,278.20 779.27,280.41 780.42,282.71 781.56,285.09 782.71,287.56 783.85,290.12 785.00,292.78 786.15,295.56 787.29,298.45 788.44,301.48 789.58,304.64 790.73,307.97 791.88,311.47 793.02,315.16 794.17,319.07 795.31,323.23 796.46,327.66 797.60,332.42 798.75,337.55 799.90,343.12 801.04,349.22 802.19,355.96 803.33,363.51 804.48,372.10 805.62,382.07 806.77,393.96 807.92,408.72 809.06,428.22 810.21,455.00 811.35,455.00 812.50,455.00 813.65,451.11 814.79,425.91 815.94,408.48 817.08,395.28 818.23,384.71 819.38,375.92 820.52,368.43 821.67,361.92 822.81,356.18 823.96,351.05 825.10,346.43 826.25,342.24 827.40,338.40 828.54,334.88 829.69,331.62 830.83,328.60 831.98,325.79 833.12,323.17 834.27,320.72 835.42,318.42 836.56,316.25 837.71,314.21 838.85,312.28 840.00,310.46 841.15,308.74 842.29,307.11 843.44,305.56 844.58,304.09 845.73,302.69 846.88,301.36 848.02,300.10 849.17,298.89 850.31,297.75 851.46,296.65 852.60,295.61 853.75,294.62 854.90,293.67 856.04,292.77 857.19,291.91 858.33,291.09 859.48,290.31 860.62,289.56 861.77,288.85 862.92,288.17 864.06,287.53 865.21,286.92 866.35,286.34 867.50,285.79 868.65,285.26 869.79,284.77 870.94,284.30 872.08,283.86 873.23,283.44 874.38,283.05 875.52,282.68 876.67,282.34 877.81,282.02 878.96,281.72 880.10,281.45 881.25,281.19 882.40,280.96 883.54,280.75 884.69,280.56 885.83,280.39 886.98,280.24 888.12,280.11 889.27,280.00 890.42,279.92 891.56,279.85 892.71,279.80 893.85,279.77 895.00,279.76" fill="none" stroke="#2563eb" stroke-width="2.2"/>
    <text x="460.0" y="508" text-anchor="middle" font-size="15" fill="#111827">Theta (deg), phi=0 deg</text>
    <text x="18" y="260.0" transform="rotate(-90 18 260.0)" text-anchor="middle" font-size="15" fill="#111827">Normalized pattern (dB)</text>
    <text x="490.5" y="68" font-size="13" fill="#ef4444">target 0 deg</text>
    <text x="760" y="185.7" font-size="13" fill="#0f766e">SLL target -20 dB</text>
  </g>
</svg>
