<svg xmlns="http://www.w3.org/2000/svg" width="920" height="520" viewBox="0 0 920 520">
  <rect width="100%" height="100%" fill="#ffffff"/>
  <text x="70" y="30" font-size="20" font-family="Arial, sans-serif" fill="#111827">PI-NAS 8x8 beam synthesis, theta0=30 deg</text>
  <g font-family="Arial, sans-serif">
    <line x1="70.0" y1="50" x2="70.0" y2="455" stroke="#e5e7eb"/><text x="70.0" y="485" text-anchor="middle" font-size="13" fill="#374151">-90</text><line x1="207.5" y1="50" x2="207.5" y2="455" stroke="#e5e7eb"/><text x="207.5" y="485" text-anchor="middle" font-size="13" fill="#374151">-60</text><line x1="345.0" y1="50" x2="345.0" y2="455" stroke="#e5e7eb"/><text x="345.0" y="485" text-anchor="middle" font-size="13" fill="#374151">-30</text><line x1="482.5" y1="50" x2="482.5" y2="455" stroke="#e5e7eb"/><text x="482.5" y="485" text-anchor="middle" font-size="13" fill="#374151">0</text><line x1="620.0" y1="50" x2="620.0" y2="455" stroke="#e5e7eb"/><text x="620.0" y="485" text-anchor="middle" font-size="13" fill="#374151">30</text><line x1="757.5" y1="50" x2="757.5" y2="455" stroke="#e5e7eb"/><text x="757.5" y="485" text-anchor="middle" font-size="13" fill="#374151">60</text><line x1="895.0" y1="50" x2="895.0" y2="455" stroke="#e5e7eb"/><text x="895.0" y="485" text-anchor="middle" font-size="13" fill="#374151">90</text><line x1="70" y1="455.0" x2="895" y2="455.0" stroke="#e5e7eb"/><text x="58" y="459.0" text-anchor="end" font-size="13" fill="#374151">-60</text><line x1="70" y1="389.7" x2="895" y2="389.7" stroke="#e5e7eb"/><text x="58" y="393.7" text-anchor="end" font-size="13" fill="#374151">-50</text><line x1="70" y1="324.4" x2="895" y2="324.4" stroke="#e5e7eb"/><text x="58" y="328.4" text-anchor="end" font-size="13" fill="#374151">-40</text><line x1="70" y1="259.0" x2="895" y2="259.0" stroke="#e5e7eb"/><text x="58" y="263.0" text-anchor="end" font-size="13" fill="#374151">-30</text><line x1="70" y1="193.7" x2="895" y2="193.7" stroke="#e5e7eb"/><text x="58" y="197.7" text-anchor="end" font-size="13" fill="#374151">-20</text><line x1="70" y1="128.4" x2="895" y2="128.4" stroke="#e5e7eb"/><text x="58" y="132.4" text-anchor="end" font-size="13" fill="#374151">-10</text><line x1="70" y1="63.1" x2="895" y2="63.1" stroke="#e5e7eb"/><text x="58" y="67.1" text-anchor="end" font-size="13" fill="#374151">0</text>
    <line x1="70" y1="455" x2="895" y2="455" stroke="#111827" stroke-width="1.2"/>
    <line x1="70" y1="50" x2="70" y2="455" stroke="#111827" stroke-width="1.2"/>
    <line x1="620.00" y1="50" x2="620.00" y2="455" stroke="#ef4444" stroke-width="1.4" stroke-dasharray="6 5"/>
    <line x1="70" y1="193.71" x2="895" y2="193.71" stroke="#0f766e" stroke-width="1.4" stroke-dasharray="7 5"/>
    <polyline points="70.00,233.96 71.15,233.96 72.29,233.96 73.44,233.96 74.58,233.97 75.73,233.97 76.88,233.97 78.02,233.97 79.17,233.98 80.31,233.98 81.46,233.98 82.60,233.98 83.75,233.98 84.90,233.98 86.04,233.98 87.19,233.97 88.33,233.96 89.48,233.94 90.62,233.93 91.77,233.90 92.92,233.87 94.06,233.84 95.21,233.80 96.35,233.75 97.50,233.69 98.65,233.62 99.79,233.55 100.94,233.46 102.08,233.36 103.23,233.25 104.38,233.13 105.52,232.99 106.67,232.84 107.81,232.68 108.96,232.49 110.10,232.30 111.25,232.08 112.40,231.85 113.54,231.60 114.69,231.33 115.83,231.04 116.98,230.74 118.12,230.41 119.27,230.06 120.42,229.70 121.56,229.31 122.71,228.90 123.85,228.48 125.00,228.03 126.15,227.56 127.29,227.08 128.44,226.57 129.58,226.05 130.73,225.51 131.88,224.95 133.02,224.38 134.17,223.79 135.31,223.19 136.46,222.57 137.60,221.94 138.75,221.29 139.90,220.64 141.04,219.97 142.19,219.30 143.33,218.61 144.48,217.92 145.62,217.23 146.77,216.53 147.92,215.82 149.06,215.11 150.21,214.40 151.35,213.69 152.50,212.97 153.65,212.26 154.79,211.55 155.94,210.85 157.08,210.14 158.23,209.45 159.38,208.75 160.52,208.07 161.67,207.39 162.81,206.72 163.96,206.06 165.10,205.41 166.25,204.77 167.40,204.14 168.54,203.52 169.69,202.91 170.83,202.32 171.98,201.74 173.12,201.18 174.27,200.64 175.42,200.10 176.56,199.59 177.71,199.09 178.85,198.61 180.00,198.15 181.15,197.71 182.29,197.29 183.44,196.89 184.58,196.51 185.73,196.15 186.88,195.81 188.02,195.50 189.17,195.21 190.31,194.94 191.46,194.70 192.60,194.48 193.75,194.29 194.90,194.12 196.04,193.98 197.19,193.87 198.33,193.79 199.48,193.73 200.62,193.70 201.77,193.71 202.92,193.74 204.06,193.81 205.21,193.91 206.35,194.05 207.50,194.21 208.65,194.41 209.79,194.65 210.94,194.93 212.08,195.24 213.23,195.59 214.38,195.98 215.52,196.42 216.67,196.89 217.81,197.41 218.96,197.97 220.10,198.58 221.25,199.24 222.40,199.94 223.54,200.69 224.69,201.50 225.83,202.36 226.98,203.28 228.12,204.25 229.27,205.28 230.42,206.37 231.56,207.53 232.71,208.74 233.85,210.03 235.00,211.38 236.15,212.81 237.29,214.30 238.44,215.87 239.58,217.52 240.73,219.24 241.88,221.03 243.02,222.90 244.17,224.85 245.31,226.87 246.46,228.96 247.60,231.11 248.75,233.31 249.90,235.54 251.04,237.80 252.19,240.05 253.33,242.27 254.48,244.41 255.62,246.43 256.77,248.28 257.92,249.90 259.06,251.22 260.21,252.20 261.35,252.77 262.50,252.92 263.65,252.62 264.79,251.89 265.94,250.76 267.08,249.28 268.23,247.50 269.38,245.49 270.52,243.31 271.67,241.00 272.81,238.63 273.96,236.22 275.10,233.81 276.25,231.42 277.40,229.07 278.54,226.79 279.69,224.57 280.83,222.42 281.98,220.36 283.12,218.38 284.27,216.49 285.42,214.68 286.56,212.96 287.71,211.33 288.85,209.79 290.00,208.33 291.15,206.95 292.29,205.66 293.44,204.45 294.58,203.32 295.73,202.27 296.88,201.31 298.02,200.41 299.17,199.60 300.31,198.86 301.46,198.20 302.60,197.61 303.75,197.10 304.90,196.66 306.04,196.29 307.19,196.00 308.33,195.78 309.48,195.64 310.62,195.56 311.77,195.57 312.92,195.64 314.06,195.80 315.21,196.03 316.35,196.33 317.50,196.72 318.65,197.18 319.79,197.72 320.94,198.35 322.08,199.06 323.23,199.86 324.38,200.74 325.52,201.72 326.67,202.79 327.81,203.96 328.96,205.22 330.10,206.60 331.25,208.08 332.40,209.68 333.54,211.39 334.69,213.24 335.83,215.21 336.98,217.33 338.12,219.60 339.27,222.03 340.42,224.63 341.56,227.42 342.71,230.41 343.85,233.62 345.00,237.08 346.15,240.80 347.29,244.82 348.44,249.17 349.58,253.90 350.73,259.06 351.88,264.71 353.02,270.91 354.17,277.77 355.31,285.36 356.46,293.77 357.60,302.99 358.75,312.78 359.90,322.28 361.04,329.49 362.19,331.66 363.33,327.87 364.48,320.21 365.62,311.29 366.77,302.58 367.92,294.58 369.06,287.41 370.21,281.03 371.35,275.34 372.50,270.25 373.65,265.70 374.79,261.59 375.94,257.89 377.08,254.53 378.23,251.49 379.38,248.72 380.52,246.19 381.67,243.88 382.81,241.77 383.96,239.84 385.10,238.06 386.25,236.43 387.40,234.94 388.54,233.55 389.69,232.28 390.83,231.09 391.98,229.99 393.12,228.96 394.27,227.99 395.42,227.08 396.56,226.20 397.71,225.36 398.85,224.55 400.00,223.76 401.15,222.97 402.29,222.19 403.44,221.41 404.58,220.62 405.73,219.82 406.88,219.01 408.02,218.18 409.17,217.33 410.31,216.47 411.46,215.58 412.60,214.68 413.75,213.77 414.90,212.84 416.04,211.91 417.19,210.97 418.33,210.03 419.48,209.10 420.62,208.18 421.77,207.27 422.92,206.38 424.06,205.52 425.21,204.69 426.35,203.89 427.50,203.14 428.65,202.42 429.79,201.76 430.94,201.15 432.08,200.60 433.23,200.11 434.38,199.68 435.52,199.33 436.67,199.04 437.81,198.84 438.96,198.71 440.10,198.67 441.25,198.72 442.40,198.86 443.54,199.09 444.69,199.42 445.83,199.86 446.98,200.41 448.12,201.07 449.27,201.85 450.42,202.76 451.56,203.80 452.71,204.98 453.85,206.30 455.00,207.79 456.15,209.44 457.29,211.26 458.44,213.28 459.58,215.51 460.73,217.96 461.88,220.65 463.02,223.60 464.17,226.85 465.31,230.43 466.46,234.36 467.60,238.69 468.75,243.48 469.90,248.78 471.04,254.64 472.19,261.12 473.33,268.24 474.48,275.96 475.62,283.99 476.77,291.65 477.92,297.54 479.06,299.85 480.21,297.63 481.35,291.83 482.50,284.27 483.65,276.33 484.79,268.72 485.94,261.72 487.08,255.37 488.23,249.66 489.38,244.55 490.52,239.96 491.67,235.86 492.81,232.20 493.96,228.93 495.10,226.03 496.25,223.47 497.40,221.22 498.54,219.28 499.69,217.63 500.83,216.26 501.98,215.16 503.12,214.33 504.27,213.77 505.42,213.48 506.56,213.46 507.71,213.74 508.85,214.30 510.00,215.19 511.15,216.40 512.29,217.97 513.44,219.93 514.58,222.31 515.73,225.16 516.88,228.53 518.02,232.48 519.17,237.08 520.31,242.36 521.46,248.32 522.60,254.81 523.75,261.30 524.90,266.63 526.04,268.87 527.19,266.44 528.33,259.65 529.48,250.41 530.62,240.43 531.77,230.67 532.92,221.48 534.06,212.97 535.21,205.11 536.35,197.84 537.50,191.11 538.65,184.85 539.79,179.01 540.94,173.53 542.08,168.38 543.23,163.52 544.38,158.93 545.52,154.58 546.67,150.44 547.81,146.51 548.96,142.76 550.10,139.17 551.25,135.75 552.40,132.47 553.54,129.33 554.69,126.31 555.83,123.42 556.98,120.64 558.12,117.97 559.27,115.40 560.42,112.92 561.56,110.54 562.71,108.25 563.85,106.04 565.00,103.91 566.15,101.86 567.29,99.88 568.44,97.98 569.58,96.14 570.73,94.37 571.88,92.66 573.02,91.02 574.17,89.44 575.31,87.92 576.46,86.45 577.60,85.04 578.75,83.68 579.90,82.38 581.04,81.12 582.19,79.92 583.33,78.77 584.48,77.66 585.62,76.60 586.77,75.59 587.92,74.62 589.06,73.69 590.21,72.81 591.35,71.97 592.50,71.18 593.65,70.42 594.79,69.71 595.94,69.03 597.08,68.39 598.23,67.79 599.38,67.23 600.52,66.71 601.67,66.22 602.81,65.77 603.96,65.36 605.10,64.98 606.25,64.64 607.40,64.33 608.54,64.06 609.69,63.82 610.83,63.61 611.98,63.44 613.12,63.30 614.27,63.19 615.42,63.12 616.56,63.07 617.71,63.06 618.85,63.09 620.00,63.14 621.15,63.23 622.29,63.34 623.44,63.49 624.58,63.67 625.73,63.88 626.88,64.12 628.02,64.39 629.17,64.69 630.31,65.02 631.46,65.39 632.60,65.78 633.75,66.20 634.90,66.66 636.04,67.14 637.19,67.65 638.33,68.20 639.48,68.77 640.62,69.38 641.77,70.01 642.92,70.68 644.06,71.37 645.21,72.10 646.35,72.85 647.50,73.64 648.65,74.46 649.79,75.31 650.94,76.19 652.08,77.10 653.23,78.05 654.38,79.02 655.52,80.03 656.67,81.07 657.81,82.14 658.96,83.25 660.10,84.39 661.25,85.56 662.40,86.77 663.54,88.01 664.69,89.28 665.83,90.60 666.98,91.95 668.12,93.33 669.27,94.75 670.42,96.21 671.56,97.71 672.71,99.25 673.85,100.83 675.00,102.45 676.15,104.12 677.29,105.82 678.44,107.57 679.58,109.37 680.73,111.21 681.88,113.10 683.02,115.05 684.17,117.04 685.31,119.08 686.46,121.19 687.60,123.35 688.75,125.56 689.90,127.84 691.04,130.19 692.19,132.60 693.33,135.08 694.48,137.64 695.62,140.28 696.77,143.00 697.92,145.80 699.06,148.70 700.21,151.70 701.35,154.80 702.50,158.01 703.65,161.34 704.79,164.80 705.94,168.41 707.08,172.16 708.23,176.07 709.38,180.17 710.52,184.46 711.67,188.96 712.81,193.70 713.96,198.70 715.10,203.98 716.25,209.58 717.40,215.52 718.54,221.83 719.69,228.53 720.83,235.58 721.98,242.93 723.12,250.39 724.27,257.56 725.42,263.80 726.56,268.19 727.71,269.92 728.85,268.80 730.00,265.40 731.15,260.65 732.29,255.33 733.44,249.97 734.58,244.82 735.73,240.02 736.88,235.59 738.02,231.54 739.17,227.85 740.31,224.48 741.46,221.40 742.60,218.60 743.75,216.04 744.90,213.71 746.04,211.58 747.19,209.63 748.33,207.84 749.48,206.22 750.62,204.73 751.77,203.37 752.92,202.14 754.06,201.01 755.21,199.99 756.35,199.07 757.50,198.24 758.65,197.50 759.79,196.83 760.94,196.24 762.08,195.72 763.23,195.27 764.38,194.88 765.52,194.55 766.67,194.28 767.81,194.07 768.96,193.90 770.10,193.79 771.25,193.72 772.40,193.70 773.54,193.72 774.69,193.78 775.83,193.89 776.98,194.03 778.12,194.20 779.27,194.42 780.42,194.66 781.56,194.94 782.71,195.25 783.85,195.58 785.00,195.95 786.15,196.34 787.29,196.76 788.44,197.21 789.58,197.68 790.73,198.17 791.88,198.68 793.02,199.22 794.17,199.77 795.31,200.34 796.46,200.93 797.60,201.54 798.75,202.16 799.90,202.80 801.04,203.45 802.19,204.12 803.33,204.80 804.48,205.48 805.62,206.18 806.77,206.89 807.92,207.60 809.06,208.33 810.21,209.05 811.35,209.79 812.50,210.52 813.65,211.26 814.79,212.00 815.94,212.74 817.08,213.48 818.23,214.22 819.38,214.96 820.52,215.69 821.67,216.41 822.81,217.13 823.96,217.85 825.10,218.55 826.25,219.25 827.40,219.93 828.54,220.61 829.69,221.27 830.83,221.92 831.98,222.55 833.12,223.17 834.27,223.77 835.42,224.36 836.56,224.93 837.71,225.48 838.85,226.01 840.00,226.53 841.15,227.02 842.29,227.50 843.44,227.95 844.58,228.39 845.73,228.80 846.88,229.20 848.02,229.58 849.17,229.93 850.31,230.27 851.46,230.58 852.60,230.88 853.75,231.16 854.90,231.42 856.04,231.67 857.19,231.89 858.33,232.10 859.48,232.30 860.62,232.47 861.77,232.64 862.92,232.79 864.06,232.93 865.21,233.05 866.35,233.16 867.50,233.27 868.65,233.36 869.79,233.44 870.94,233.51 872.08,233.58 873.23,233.64 874.38,233.69 875.52,233.73 876.67,233.77 877.81,233.80 878.96,233.83 880.10,233.85 881.25,233.88 882.40,233.89 883.54,233.91 884.69,233.92 885.83,233.93 886.98,233.94 888.12,233.94 889.27,233.95 890.42,233.95 891.56,233.96 892.71,233.96 893.85,233.96 895.00,233.96" fill="none" stroke="#2563eb" stroke-width="2.2"/>
    <text x="460.0" y="508" text-anchor="middle" font-size="15" fill="#111827">Theta (deg), phi=0 deg</text>
    <text x="18" y="260.0" transform="rotate(-90 18 260.0)" text-anchor="middle" font-size="15" fill="#111827">Normalized pattern (dB)</text>
    <text x="628.0" y="68" font-size="13" fill="#ef4444">target 30 deg</text>
    <text x="760" y="185.7" font-size="13" fill="#0f766e">SLL target -20 dB</text>
  </g>
</svg>
