<svg xmlns="http://www.w3.org/2000/svg" width="920" height="520" viewBox="0 0 920 520">
  <rect width="100%" height="100%" fill="#ffffff"/>
  <text x="70" y="30" font-size="20" font-family="Arial, sans-serif" fill="#111827">PI-NAS 8x8 beam synthesis, theta0=0 deg</text>
  <g font-family="Arial, sans-serif">
    <line x1="70.0" y1="50" x2="70.0" y2="455" stroke="#e5e7eb"/><text x="70.0" y="485" text-anchor="middle" font-size="13" fill="#374151">-90</text><line x1="207.5" y1="50" x2="207.5" y2="455" stroke="#e5e7eb"/><text x="207.5" y="485" text-anchor="middle" font-size="13" fill="#374151">-60</text><line x1="345.0" y1="50" x2="345.0" y2="455" stroke="#e5e7eb"/><text x="345.0" y="485" text-anchor="middle" font-size="13" fill="#374151">-30</text><line x1="482.5" y1="50" x2="482.5" y2="455" stroke="#e5e7eb"/><text x="482.5" y="485" text-anchor="middle" font-size="13" fill="#374151">0</text><line x1="620.0" y1="50" x2="620.0" y2="455" stroke="#e5e7eb"/><text x="620.0" y="485" text-anchor="middle" font-size="13" fill="#374151">30</text><line x1="757.5" y1="50" x2="757.5" y2="455" stroke="#e5e7eb"/><text x="757.5" y="485" text-anchor="middle" font-size="13" fill="#374151">60</text><line x1="895.0" y1="50" x2="895.0" y2="455" stroke="#e5e7eb"/><text x="895.0" y="485" text-anchor="middle" font-size="13" fill="#374151">90</text><line x1="70" y1="455.0" x2="895" y2="455.0" stroke="#e5e7eb"/><text x="58" y="459.0" text-anchor="end" font-size="13" fill="#374151">-60</text><line x1="70" y1="389.7" x2="895" y2="389.7" stroke="#e5e7eb"/><text x="58" y="393.7" text-anchor="end" font-size="13" fill="#374151">-50</text><line x1="70" y1="324.4" x2="895" y2="324.4" stroke="#e5e7eb"/><text x="58" y="328.4" text-anchor="end" font-size="13" fill="#374151">-40</text><line x1="70" y1="259.0" x2="895" y2="259.0" stroke="#e5e7eb"/><text x="58" y="263.0" text-anchor="end" font-size="13" fill="#374151">-30</text><line x1="70" y1="193.7" x2="895" y2="193.7" stroke="#e5e7eb"/><text x="58" y="197.7" text-anchor="end" font-size="13" fill="#374151">-20</text><line x1="70" y1="128.4" x2="895" y2="128.4" stroke="#e5e7eb"/><text x="58" y="132.4" text-anchor="end" font-size="13" fill="#374151">-10</text><line x1="70" y1="63.1" x2="895" y2="63.1" stroke="#e5e7eb"/><text x="58" y="67.1" text-anchor="end" font-size="13" fill="#374151">0</text>
    <line x1="70" y1="455" x2="895" y2="455" stroke="#111827" stroke-width="1.2"/>
    <line x1="70" y1="50" x2="70" y2="455" stroke="#111827" stroke-width="1.2"/>
    <line x1="482.50" y1="50" x2="482.50" y2="455" stroke="#ef4444" stroke-width="1.4" stroke-dasharray="6 5"/>
    <line x1="70" y1="193.71" x2="895" y2="193.71" stroke="#0f766e" stroke-width="1.4" stroke-dasharray="7 5"/>
    <polyline points="70.00,283.11 71.15,283.11 72.29,283.11 73.44,283.12 74.58,283.12 75.73,283.13 76.88,283.14 78.02,283.15 79.17,283.16 80.31,283.17 81.46,283.18 82.60,283.19 83.75,283.21 84.90,283.22 86.04,283.22 87.19,283.23 88.33,283.24 89.48,283.24 90.62,283.24 91.77,283.23 92.92,283.22 94.06,283.20 95.21,283.18 96.35,283.15 97.50,283.11 98.65,283.07 99.79,283.01 100.94,282.94 102.08,282.87 103.23,282.78 104.38,282.68 105.52,282.56 106.67,282.43 107.81,282.29 108.96,282.13 110.10,281.95 111.25,281.75 112.40,281.54 113.54,281.31 114.69,281.06 115.83,280.79 116.98,280.50 118.12,280.19 119.27,279.86 120.42,279.50 121.56,279.13 122.71,278.73 123.85,278.32 125.00,277.88 126.15,277.42 127.29,276.94 128.44,276.44 129.58,275.92 130.73,275.38 131.88,274.82 133.02,274.24 134.17,273.64 135.31,273.03 136.46,272.39 137.60,271.75 138.75,271.08 139.90,270.41 141.04,269.72 142.19,269.02 143.33,268.30 144.48,267.58 145.62,266.84 146.77,266.10 147.92,265.35 149.06,264.59 150.21,263.82 151.35,263.05 152.50,262.28 153.65,261.50 154.79,260.72 155.94,259.93 157.08,259.15 158.23,258.37 159.38,257.58 160.52,256.80 161.67,256.01 162.81,255.23 163.96,254.45 165.10,253.68 166.25,252.91 167.40,252.14 168.54,251.38 169.69,250.62 170.83,249.87 171.98,249.13 173.12,248.39 174.27,247.66 175.42,246.93 176.56,246.22 177.71,245.51 178.85,244.80 180.00,244.11 181.15,243.43 182.29,242.75 183.44,242.08 184.58,241.43 185.73,240.78 186.88,240.14 188.02,239.51 189.17,238.89 190.31,238.28 191.46,237.68 192.60,237.09 193.75,236.51 194.90,235.94 196.04,235.38 197.19,234.83 198.33,234.29 199.48,233.76 200.62,233.24 201.77,232.73 202.92,232.24 204.06,231.75 205.21,231.27 206.35,230.81 207.50,230.35 208.65,229.90 209.79,229.47 210.94,229.04 212.08,228.63 213.23,228.23 214.38,227.83 215.52,227.45 216.67,227.08 217.81,226.72 218.96,226.36 220.10,226.02 221.25,225.69 222.40,225.37 223.54,225.06 224.69,224.76 225.83,224.47 226.98,224.20 228.12,223.93 229.27,223.67 230.42,223.43 231.56,223.19 232.71,222.97 233.85,222.76 235.00,222.56 236.15,222.37 237.29,222.19 238.44,222.03 239.58,221.87 240.73,221.73 241.88,221.61 243.02,221.49 244.17,221.39 245.31,221.31 246.46,221.23 247.60,221.18 248.75,221.13 249.90,221.11 251.04,221.10 252.19,221.10 253.33,221.13 254.48,221.17 255.62,221.23 256.77,221.31 257.92,221.41 259.06,221.53 260.21,221.67 261.35,221.84 262.50,222.02 263.65,222.24 264.79,222.48 265.94,222.74 267.08,223.03 268.23,223.36 269.38,223.71 270.52,224.09 271.67,224.51 272.81,224.96 273.96,225.44 275.10,225.97 276.25,226.53 277.40,227.13 278.54,227.78 279.69,228.47 280.83,229.21 281.98,229.99 283.12,230.83 284.27,231.72 285.42,232.67 286.56,233.67 287.71,234.74 288.85,235.87 290.00,237.07 291.15,238.33 292.29,239.67 293.44,241.09 294.58,242.59 295.73,244.17 296.88,245.84 298.02,247.60 299.17,249.46 300.31,251.41 301.46,253.46 302.60,255.61 303.75,257.87 304.90,260.23 306.04,262.68 307.19,265.22 308.33,267.85 309.48,270.53 310.62,273.25 311.77,275.97 312.92,278.65 314.06,281.21 315.21,283.58 316.35,285.67 317.50,287.38 318.65,288.62 319.79,289.31 320.94,289.40 322.08,288.88 323.23,287.80 324.38,286.22 325.52,284.23 326.67,281.93 327.81,279.43 328.96,276.80 330.10,274.13 331.25,271.45 332.40,268.83 333.54,266.29 334.69,263.85 335.83,261.54 336.98,259.36 338.12,257.32 339.27,255.44 340.42,253.70 341.56,252.12 342.71,250.71 343.85,249.45 345.00,248.37 346.15,247.45 347.29,246.71 348.44,246.14 349.58,245.77 350.73,245.58 351.88,245.60 353.02,245.83 354.17,246.29 355.31,246.99 356.46,247.96 357.60,249.22 358.75,250.79 359.90,252.72 361.04,255.05 362.19,257.83 363.33,261.16 364.48,265.12 365.62,269.84 366.77,275.50 367.92,282.36 369.06,290.76 370.21,301.19 371.35,314.26 372.50,329.99 373.65,343.89 374.79,341.63 375.94,323.80 377.08,304.53 378.23,287.96 379.38,273.99 380.52,262.03 381.67,251.58 382.81,242.30 383.96,233.95 385.10,226.34 386.25,219.34 387.40,212.85 388.54,206.80 389.69,201.13 390.83,195.78 391.98,190.73 393.12,185.93 394.27,181.37 395.42,177.01 396.56,172.84 397.71,168.85 398.85,165.02 400.00,161.34 401.15,157.79 402.29,154.37 403.44,151.07 404.58,147.89 405.73,144.81 406.88,141.83 408.02,138.94 409.17,136.15 410.31,133.44 411.46,130.81 412.60,128.26 413.75,125.78 414.90,123.38 416.04,121.05 417.19,118.78 418.33,116.58 419.48,114.44 420.62,112.36 421.77,110.34 422.92,108.37 424.06,106.46 425.21,104.60 426.35,102.80 427.50,101.05 428.65,99.34 429.79,97.69 430.94,96.08 432.08,94.52 433.23,93.00 434.38,91.53 435.52,90.10 436.67,88.71 437.81,87.37 438.96,86.07 440.10,84.80 441.25,83.58 442.40,82.40 443.54,81.26 444.69,80.15 445.83,79.09 446.98,78.06 448.12,77.07 449.27,76.11 450.42,75.19 451.56,74.31 452.71,73.46 453.85,72.65 455.00,71.87 456.15,71.12 457.29,70.41 458.44,69.74 459.58,69.10 460.73,68.49 461.88,67.91 463.02,67.37 464.17,66.86 465.31,66.38 466.46,65.94 467.60,65.52 468.75,65.15 469.90,64.80 471.04,64.48 472.19,64.20 473.33,63.95 474.48,63.72 475.62,63.54 476.77,63.38 477.92,63.25 479.06,63.16 480.21,63.10 481.35,63.06 482.50,63.06 483.65,63.10 484.79,63.16 485.94,63.25 487.08,63.38 488.23,63.54 489.38,63.73 490.52,63.95 491.67,64.20 492.81,64.49 493.96,64.81 495.10,65.16 496.25,65.54 497.40,65.95 498.54,66.40 499.69,66.88 500.83,67.39 501.98,67.94 503.12,68.52 504.27,69.13 505.42,69.78 506.56,70.47 507.71,71.18 508.85,71.93 510.00,72.72 511.15,73.54 512.29,74.40 513.44,75.30 514.58,76.23 515.73,77.20 516.88,78.21 518.02,79.26 519.17,80.34 520.31,81.47 521.46,82.63 522.60,83.84 523.75,85.09 524.90,86.38 526.04,87.71 527.19,89.09 528.33,90.51 529.48,91.98 530.62,93.50 531.77,95.06 532.92,96.67 534.06,98.34 535.21,100.06 536.35,101.83 537.50,103.65 538.65,105.54 539.79,107.48 540.94,109.48 542.08,111.55 543.23,113.68 544.38,115.89 545.52,118.16 546.67,120.51 547.81,122.93 548.96,125.44 550.10,128.03 551.25,130.71 552.40,133.49 553.54,136.37 554.69,139.36 555.83,142.46 556.98,145.69 558.12,149.04 559.27,152.54 560.42,156.19 561.56,160.01 562.71,164.01 563.85,168.22 565.00,172.64 566.15,177.31 567.29,182.26 568.44,187.52 569.58,193.14 570.73,199.16 571.88,205.66 573.02,212.72 574.17,220.43 575.31,228.91 576.46,238.32 577.60,248.79 578.75,260.37 579.90,272.72 581.04,284.33 582.19,291.57 583.33,290.79 584.48,283.40 585.62,273.67 586.77,264.16 587.92,255.67 589.06,248.29 590.21,241.91 591.35,236.38 592.50,231.57 593.65,227.37 594.79,223.69 595.94,220.46 597.08,217.61 598.23,215.11 599.38,212.90 600.52,210.97 601.67,209.28 602.81,207.82 603.96,206.55 605.10,205.48 606.25,204.57 607.40,203.83 608.54,203.24 609.69,202.80 610.83,202.49 611.98,202.30 613.12,202.25 614.27,202.31 615.42,202.49 616.56,202.78 617.71,203.19 618.85,203.70 620.00,204.31 621.15,205.04 622.29,205.87 623.44,206.80 624.58,207.84 625.73,208.99 626.88,210.24 628.02,211.60 629.17,213.08 630.31,214.67 631.46,216.38 632.60,218.21 633.75,220.18 634.90,222.27 636.04,224.51 637.19,226.90 638.33,229.45 639.48,232.17 640.62,235.08 641.77,238.18 642.92,241.51 644.06,245.07 645.21,248.89 646.35,253.01 647.50,257.46 648.65,262.28 649.79,267.52 650.94,273.23 652.08,279.49 653.23,286.35 654.38,293.86 655.52,302.03 656.67,310.69 657.81,319.32 658.96,326.70 660.10,330.83 661.25,330.12 662.40,324.99 663.54,317.44 664.69,309.19 665.83,301.17 666.98,293.73 668.12,286.95 669.27,280.81 670.42,275.23 671.56,270.17 672.71,265.55 673.85,261.33 675.00,257.44 676.15,253.87 677.29,250.56 678.44,247.49 679.58,244.64 680.73,241.98 681.88,239.50 683.02,237.18 684.17,235.02 685.31,232.98 686.46,231.08 687.60,229.29 688.75,227.60 689.90,226.02 691.04,224.54 692.19,223.14 693.33,221.83 694.48,220.59 695.62,219.43 696.77,218.34 697.92,217.31 699.06,216.35 700.21,215.45 701.35,214.60 702.50,213.81 703.65,213.07 704.79,212.39 705.94,211.75 707.08,211.15 708.23,210.61 709.38,210.10 710.52,209.63 711.67,209.21 712.81,208.82 713.96,208.47 715.10,208.16 716.25,207.88 717.40,207.64 718.54,207.43 719.69,207.25 720.83,207.10 721.98,206.98 723.12,206.89 724.27,206.83 725.42,206.80 726.56,206.79 727.71,206.81 728.85,206.86 730.00,206.93 731.15,207.03 732.29,207.15 733.44,207.29 734.58,207.46 735.73,207.65 736.88,207.86 738.02,208.10 739.17,208.35 740.31,208.63 741.46,208.93 742.60,209.25 743.75,209.58 744.90,209.94 746.04,210.32 747.19,210.71 748.33,211.13 749.48,211.56 750.62,212.01 751.77,212.47 752.92,212.96 754.06,213.46 755.21,213.98 756.35,214.51 757.50,215.06 758.65,215.63 759.79,216.21 760.94,216.81 762.08,217.42 763.23,218.05 764.38,218.69 765.52,219.34 766.67,220.01 767.81,220.70 768.96,221.40 770.10,222.11 771.25,222.83 772.40,223.57 773.54,224.32 774.69,225.08 775.83,225.85 776.98,226.64 778.12,227.43 779.27,228.24 780.42,229.06 781.56,229.89 782.71,230.72 783.85,231.57 785.00,232.43 786.15,233.30 787.29,234.17 788.44,235.06 789.58,235.95 790.73,236.85 791.88,237.76 793.02,238.67 794.17,239.59 795.31,240.52 796.46,241.45 797.60,242.39 798.75,243.33 799.90,244.27 801.04,245.22 802.19,246.17 803.33,247.12 804.48,248.08 805.62,249.03 806.77,249.98 807.92,250.94 809.06,251.89 810.21,252.84 811.35,253.79 812.50,254.73 813.65,255.67 814.79,256.60 815.94,257.53 817.08,258.45 818.23,259.36 819.38,260.27 820.52,261.16 821.67,262.04 822.81,262.91 823.96,263.77 825.10,264.62 826.25,265.45 827.40,266.26 828.54,267.06 829.69,267.85 830.83,268.61 831.98,269.36 833.12,270.09 834.27,270.79 835.42,271.48 836.56,272.15 837.71,272.80 838.85,273.42 840.00,274.02 841.15,274.60 842.29,275.16 843.44,275.69 844.58,276.20 845.73,276.69 846.88,277.16 848.02,277.60 849.17,278.02 850.31,278.42 851.46,278.79 852.60,279.15 853.75,279.48 854.90,279.79 856.04,280.09 857.19,280.36 858.33,280.62 859.48,280.86 860.62,281.08 861.77,281.28 862.92,281.47 864.06,281.64 865.21,281.80 866.35,281.95 867.50,282.08 868.65,282.20 869.79,282.31 870.94,282.41 872.08,282.50 873.23,282.58 874.38,282.65 875.52,282.72 876.67,282.78 877.81,282.83 878.96,282.87 880.10,282.91 881.25,282.95 882.40,282.98 883.54,283.00 884.69,283.02 885.83,283.04 886.98,283.06 888.12,283.07 889.27,283.08 890.42,283.09 891.56,283.10 892.71,283.10 893.85,283.11 895.00,283.11" fill="none" stroke="#2563eb" stroke-width="2.2"/>
    <text x="460.0" y="508" text-anchor="middle" font-size="15" fill="#111827">Theta (deg), phi=0 deg</text>
    <text x="18" y="260.0" transform="rotate(-90 18 260.0)" text-anchor="middle" font-size="15" fill="#111827">Normalized pattern (dB)</text>
    <text x="490.5" y="68" font-size="13" fill="#ef4444">target 0 deg</text>
    <text x="760" y="185.7" font-size="13" fill="#0f766e">SLL target -20 dB</text>
  </g>
</svg>
