<svg xmlns="http://www.w3.org/2000/svg" width="920" height="520" viewBox="0 0 920 520">
  <rect width="100%" height="100%" fill="#ffffff"/>
  <text x="70" y="30" font-size="20" font-family="Arial, sans-serif" fill="#111827">PI-NAS 8x8 beam synthesis, theta0=-30 deg</text>
  <g font-family="Arial, sans-serif">
    <line x1="70.0" y1="50" x2="70.0" y2="455" stroke="#e5e7eb"/><text x="70.0" y="485" text-anchor="middle" font-size="13" fill="#374151">-90</text><line x1="207.5" y1="50" x2="207.5" y2="455" stroke="#e5e7eb"/><text x="207.5" y="485" text-anchor="middle" font-size="13" fill="#374151">-60</text><line x1="345.0" y1="50" x2="345.0" y2="455" stroke="#e5e7eb"/><text x="345.0" y="485" text-anchor="middle" font-size="13" fill="#374151">-30</text><line x1="482.5" y1="50" x2="482.5" y2="455" stroke="#e5e7eb"/><text x="482.5" y="485" text-anchor="middle" font-size="13" fill="#374151">0</text><line x1="620.0" y1="50" x2="620.0" y2="455" stroke="#e5e7eb"/><text x="620.0" y="485" text-anchor="middle" font-size="13" fill="#374151">30</text><line x1="757.5" y1="50" x2="757.5" y2="455" stroke="#e5e7eb"/><text x="757.5" y="485" text-anchor="middle" font-size="13" fill="#374151">60</text><line x1="895.0" y1="50" x2="895.0" y2="455" stroke="#e5e7eb"/><text x="895.0" y="485" text-anchor="middle" font-size="13" fill="#374151">90</text><line x1="70" y1="455.0" x2="895" y2="455.0" stroke="#e5e7eb"/><text x="58" y="459.0" text-anchor="end" font-size="13" fill="#374151">-60</text><line x1="70" y1="389.7" x2="895" y2="389.7" stroke="#e5e7eb"/><text x="58" y="393.7" text-anchor="end" font-size="13" fill="#374151">-50</text><line x1="70" y1="324.4" x2="895" y2="324.4" stroke="#e5e7eb"/><text x="58" y="328.4" text-anchor="end" font-size="13" fill="#374151">-40</text><line x1="70" y1="259.0" x2="895" y2="259.0" stroke="#e5e7eb"/><text x="58" y="263.0" text-anchor="end" font-size="13" fill="#374151">-30</text><line x1="70" y1="193.7" x2="895" y2="193.7" stroke="#e5e7eb"/><text x="58" y="197.7" text-anchor="end" font-size="13" fill="#374151">-20</text><line x1="70" y1="128.4" x2="895" y2="128.4" stroke="#e5e7eb"/><text x="58" y="132.4" text-anchor="end" font-size="13" fill="#374151">-10</text><line x1="70" y1="63.1" x2="895" y2="63.1" stroke="#e5e7eb"/><text x="58" y="67.1" text-anchor="end" font-size="13" fill="#374151">0</text>
    <line x1="70" y1="455" x2="895" y2="455" stroke="#111827" stroke-width="1.2"/>
    <line x1="70" y1="50" x2="70" y2="455" stroke="#111827" stroke-width="1.2"/>
    <line x1="345.00" y1="50" x2="345.00" y2="455" stroke="#ef4444" stroke-width="1.4" stroke-dasharray="6 5"/>
    <line x1="70" y1="193.71" x2="895" y2="193.71" stroke="#0f766e" stroke-width="1.4" stroke-dasharray="7 5"/>
    <polyline points="70.00,282.80 71.15,282.79 72.29,282.76 73.44,282.71 74.58,282.64 75.73,282.55 76.88,282.43 78.02,282.30 79.17,282.13 80.31,281.95 81.46,281.74 82.60,281.50 83.75,281.23 84.90,280.93 86.04,280.60 87.19,280.24 88.33,279.85 89.48,279.42 90.62,278.95 91.77,278.44 92.92,277.90 94.06,277.32 95.21,276.70 96.35,276.04 97.50,275.33 98.65,274.59 99.79,273.80 100.94,272.98 102.08,272.11 103.23,271.21 104.38,270.26 105.52,269.28 106.67,268.27 107.81,267.22 108.96,266.13 110.10,265.02 111.25,263.87 112.40,262.70 113.54,261.51 114.69,260.29 115.83,259.05 116.98,257.79 118.12,256.51 119.27,255.22 120.42,253.91 121.56,252.60 122.71,251.27 123.85,249.94 125.00,248.60 126.15,247.26 127.29,245.92 128.44,244.57 129.58,243.23 130.73,241.89 131.88,240.55 133.02,239.22 134.17,237.90 135.31,236.58 136.46,235.27 137.60,233.97 138.75,232.68 139.90,231.40 141.04,230.13 142.19,228.88 143.33,227.64 144.48,226.41 145.62,225.20 146.77,224.00 147.92,222.83 149.06,221.66 150.21,220.52 151.35,219.39 152.50,218.28 153.65,217.19 154.79,216.12 155.94,215.07 157.08,214.05 158.23,213.04 159.38,212.05 160.52,211.09 161.67,210.14 162.81,209.22 163.96,208.33 165.10,207.45 166.25,206.61 167.40,205.78 168.54,204.99 169.69,204.22 170.83,203.47 171.98,202.75 173.12,202.06 174.27,201.40 175.42,200.77 176.56,200.17 177.71,199.59 178.85,199.05 180.00,198.55 181.15,198.07 182.29,197.63 183.44,197.23 184.58,196.86 185.73,196.52 186.88,196.23 188.02,195.97 189.17,195.76 190.31,195.59 191.46,195.46 192.60,195.38 193.75,195.35 194.90,195.37 196.04,195.43 197.19,195.55 198.33,195.73 199.48,195.97 200.62,196.27 201.77,196.63 202.92,197.06 204.06,197.57 205.21,198.15 206.35,198.81 207.50,199.56 208.65,200.40 209.79,201.34 210.94,202.39 212.08,203.55 213.23,204.83 214.38,206.25 215.52,207.81 216.67,209.53 217.81,211.43 218.96,213.53 220.10,215.84 221.25,218.39 222.40,221.21 223.54,224.35 224.69,227.85 225.83,231.76 226.98,236.16 228.12,241.14 229.27,246.81 230.42,253.32 231.56,260.85 232.71,269.60 233.85,279.73 235.00,290.99 236.15,301.76 237.29,307.29 238.44,302.78 239.58,290.98 240.73,277.47 241.88,264.80 243.02,253.48 244.17,243.46 245.31,234.52 246.46,226.48 247.60,219.18 248.75,212.50 249.90,206.33 251.04,200.60 252.19,195.25 253.33,190.22 254.48,185.49 255.62,181.01 256.77,176.75 257.92,172.70 259.06,168.83 260.21,165.13 261.35,161.58 262.50,158.18 263.65,154.90 264.79,151.74 265.94,148.69 267.08,145.75 268.23,142.90 269.38,140.15 270.52,137.48 271.67,134.89 272.81,132.38 273.96,129.94 275.10,127.58 276.25,125.28 277.40,123.04 278.54,120.86 279.69,118.75 280.83,116.69 281.98,114.68 283.12,112.73 284.27,110.83 285.42,108.98 286.56,107.17 287.71,105.41 288.85,103.70 290.00,102.03 291.15,100.41 292.29,98.82 293.44,97.28 294.58,95.78 295.73,94.32 296.88,92.89 298.02,91.50 299.17,90.16 300.31,88.84 301.46,87.57 302.60,86.33 303.75,85.12 304.90,83.95 306.04,82.81 307.19,81.71 308.33,80.64 309.48,79.61 310.62,78.60 311.77,77.63 312.92,76.69 314.06,75.79 315.21,74.91 316.35,74.07 317.50,73.26 318.65,72.48 319.79,71.73 320.94,71.02 322.08,70.33 323.23,69.67 324.38,69.05 325.52,68.46 326.67,67.89 327.81,67.36 328.96,66.86 330.10,66.39 331.25,65.95 332.40,65.54 333.54,65.16 334.69,64.81 335.83,64.50 336.98,64.21 338.12,63.96 339.27,63.74 340.42,63.55 341.56,63.39 342.71,63.26 343.85,63.16 345.00,63.10 346.15,63.06 347.29,63.06 348.44,63.10 349.58,63.16 350.73,63.26 351.88,63.40 353.02,63.56 354.17,63.76 355.31,64.00 356.46,64.27 357.60,64.57 358.75,64.91 359.90,65.29 361.04,65.70 362.19,66.15 363.33,66.64 364.48,67.16 365.62,67.72 366.77,68.33 367.92,68.97 369.06,69.65 370.21,70.37 371.35,71.13 372.50,71.94 373.65,72.78 374.79,73.68 375.94,74.61 377.08,75.59 378.23,76.62 379.38,77.69 380.52,78.82 381.67,79.99 382.81,81.21 383.96,82.49 385.10,83.82 386.25,85.20 387.40,86.64 388.54,88.13 389.69,89.69 390.83,91.31 391.98,92.99 393.12,94.73 394.27,96.55 395.42,98.43 396.56,100.39 397.71,102.42 398.85,104.53 400.00,106.72 401.15,109.00 402.29,111.37 403.44,113.84 404.58,116.40 405.73,119.07 406.88,121.85 408.02,124.75 409.17,127.77 410.31,130.92 411.46,134.22 412.60,137.68 413.75,141.29 414.90,145.10 416.04,149.09 417.19,153.31 418.33,157.76 419.48,162.48 420.62,167.50 421.77,172.86 422.92,178.62 424.06,184.82 425.21,191.56 426.35,198.94 427.50,207.11 428.65,216.27 429.79,226.73 430.94,238.95 432.08,253.71 433.23,272.46 434.38,298.20 435.52,336.75 436.67,353.02 437.81,314.42 438.96,288.20 440.10,270.76 441.25,258.12 442.40,248.44 443.54,240.76 444.69,234.55 445.83,229.43 446.98,225.20 448.12,221.68 449.27,218.75 450.42,216.34 451.56,214.38 452.71,212.82 453.85,211.61 455.00,210.72 456.15,210.13 457.29,209.82 458.44,209.77 459.58,209.97 460.73,210.39 461.88,211.04 463.02,211.91 464.17,212.97 465.31,214.22 466.46,215.66 467.60,217.26 468.75,219.02 469.90,220.90 471.04,222.88 472.19,224.94 473.33,227.01 474.48,229.05 475.62,230.99 476.77,232.75 477.92,234.24 479.06,235.38 480.21,236.10 481.35,236.32 482.50,236.04 483.65,235.26 484.79,234.02 485.94,232.39 487.08,230.44 488.23,228.27 489.38,225.94 490.52,223.54 491.67,221.11 492.81,218.71 493.96,216.36 495.10,214.09 496.25,211.93 497.40,209.89 498.54,207.96 499.69,206.17 500.83,204.51 501.98,202.99 503.12,201.60 504.27,200.34 505.42,199.22 506.56,198.23 507.71,197.38 508.85,196.65 510.00,196.05 511.15,195.57 512.29,195.23 513.44,195.01 514.58,194.91 515.73,194.94 516.88,195.09 518.02,195.37 519.17,195.77 520.31,196.30 521.46,196.95 522.60,197.74 523.75,198.65 524.90,199.70 526.04,200.89 527.19,202.22 528.33,203.69 529.48,205.31 530.62,207.09 531.77,209.03 532.92,211.14 534.06,213.42 535.21,215.89 536.35,218.55 537.50,221.41 538.65,224.50 539.79,227.81 540.94,231.36 542.08,235.16 543.23,239.23 544.38,243.56 545.52,248.15 546.67,253.00 547.81,258.04 548.96,263.19 550.10,268.30 551.25,273.12 552.40,277.31 553.54,280.45 554.69,282.17 555.83,282.26 556.98,280.80 558.12,278.11 559.27,274.59 560.42,270.65 561.56,266.57 562.71,262.54 563.85,258.68 565.00,255.05 566.15,251.69 567.29,248.61 568.44,245.79 569.58,243.25 570.73,240.96 571.88,238.92 573.02,237.11 574.17,235.53 575.31,234.17 576.46,233.01 577.60,232.05 578.75,231.29 579.90,230.71 581.04,230.32 582.19,230.12 583.33,230.09 584.48,230.24 585.62,230.57 586.77,231.08 587.92,231.77 589.06,232.64 590.21,233.70 591.35,234.96 592.50,236.41 593.65,238.07 594.79,239.95 595.94,242.05 597.08,244.39 598.23,246.97 599.38,249.82 600.52,252.94 601.67,256.34 602.81,260.02 603.96,264.00 605.10,268.23 606.25,272.68 607.40,277.25 608.54,281.75 609.69,285.90 610.83,289.31 611.98,291.49 613.12,292.06 614.27,290.84 615.42,288.00 616.56,283.97 617.71,279.20 618.85,274.09 620.00,268.92 621.15,263.85 622.29,259.00 623.44,254.39 624.58,250.06 625.73,246.00 626.88,242.21 628.02,238.67 629.17,235.36 630.31,232.28 631.46,229.41 632.60,226.74 633.75,224.25 634.90,221.94 636.04,219.79 637.19,217.79 638.33,215.94 639.48,214.22 640.62,212.64 641.77,211.18 642.92,209.85 644.06,208.63 645.21,207.52 646.35,206.52 647.50,205.62 648.65,204.82 649.79,204.12 650.94,203.52 652.08,203.01 653.23,202.59 654.38,202.27 655.52,202.03 656.67,201.88 657.81,201.81 658.96,201.83 660.10,201.94 661.25,202.14 662.40,202.41 663.54,202.78 664.69,203.23 665.83,203.77 666.98,204.40 668.12,205.12 669.27,205.93 670.42,206.83 671.56,207.82 672.71,208.91 673.85,210.11 675.00,211.41 676.15,212.81 677.29,214.33 678.44,215.96 679.58,217.71 680.73,219.59 681.88,221.61 683.02,223.77 684.17,226.09 685.31,228.57 686.46,231.23 687.60,234.07 688.75,237.13 689.90,240.41 691.04,243.94 692.19,247.75 693.33,251.87 694.48,256.33 695.62,261.18 696.77,266.47 697.92,272.24 699.06,278.56 700.21,285.47 701.35,292.98 702.50,300.97 703.65,309.09 704.79,316.49 705.94,321.64 707.08,322.86 708.23,319.71 709.38,313.45 710.52,305.80 711.67,297.96 712.81,290.47 713.96,283.55 715.10,277.22 716.25,271.46 717.40,266.21 718.54,261.41 719.69,257.02 720.83,252.99 721.98,249.27 723.12,245.84 724.27,242.66 725.42,239.72 726.56,236.98 727.71,234.42 728.85,232.04 730.00,229.82 731.15,227.75 732.29,225.81 733.44,223.99 734.58,222.30 735.73,220.71 736.88,219.23 738.02,217.84 739.17,216.54 740.31,215.33 741.46,214.21 742.60,213.16 743.75,212.18 744.90,211.28 746.04,210.44 747.19,209.67 748.33,208.97 749.48,208.32 750.62,207.73 751.77,207.19 752.92,206.71 754.06,206.28 755.21,205.90 756.35,205.57 757.50,205.29 758.65,205.05 759.79,204.86 760.94,204.72 762.08,204.61 763.23,204.55 764.38,204.52 765.52,204.54 766.67,204.60 767.81,204.69 768.96,204.82 770.10,204.99 771.25,205.19 772.40,205.43 773.54,205.71 774.69,206.02 775.83,206.36 776.98,206.73 778.12,207.14 779.27,207.58 780.42,208.06 781.56,208.56 782.71,209.10 783.85,209.66 785.00,210.26 786.15,210.89 787.29,211.54 788.44,212.23 789.58,212.95 790.73,213.69 791.88,214.47 793.02,215.27 794.17,216.10 795.31,216.96 796.46,217.85 797.60,218.77 798.75,219.71 799.90,220.68 801.04,221.68 802.19,222.71 803.33,223.76 804.48,224.84 805.62,225.95 806.77,227.08 807.92,228.24 809.06,229.43 810.21,230.64 811.35,231.88 812.50,233.14 813.65,234.42 814.79,235.73 815.94,237.07 817.08,238.42 818.23,239.80 819.38,241.20 820.52,242.62 821.67,244.06 822.81,245.51 823.96,246.99 825.10,248.48 826.25,249.98 827.40,251.49 828.54,253.02 829.69,254.55 830.83,256.09 831.98,257.63 833.12,259.17 834.27,260.71 835.42,262.24 836.56,263.76 837.71,265.27 838.85,266.75 840.00,268.22 841.15,269.65 842.29,271.05 843.44,272.41 844.58,273.73 845.73,274.99 846.88,276.20 848.02,277.36 849.17,278.45 850.31,279.47 851.46,280.42 852.60,281.30 853.75,282.10 854.90,282.82 856.04,283.46 857.19,284.03 858.33,284.52 859.48,284.93 860.62,285.27 861.77,285.54 862.92,285.75 864.06,285.89 865.21,285.98 866.35,286.02 867.50,286.01 868.65,285.97 869.79,285.88 870.94,285.77 872.08,285.63 873.23,285.47 874.38,285.29 875.52,285.10 876.67,284.90 877.81,284.70 878.96,284.50 880.10,284.30 881.25,284.11 882.40,283.92 883.54,283.74 884.69,283.57 885.83,283.42 886.98,283.28 888.12,283.16 889.27,283.05 890.42,282.96 891.56,282.89 892.71,282.84 893.85,282.81 895.00,282.80" fill="none" stroke="#2563eb" stroke-width="2.2"/>
    <text x="460.0" y="508" text-anchor="middle" font-size="15" fill="#111827">Theta (deg), phi=0 deg</text>
    <text x="18" y="260.0" transform="rotate(-90 18 260.0)" text-anchor="middle" font-size="15" fill="#111827">Normalized pattern (dB)</text>
    <text x="353.0" y="68" font-size="13" fill="#ef4444">target -30 deg</text>
    <text x="760" y="185.7" font-size="13" fill="#0f766e">SLL target -20 dB</text>
  </g>
</svg>
