<svg xmlns="http://www.w3.org/2000/svg" width="920" height="520" viewBox="0 0 920 520">
  <rect width="100%" height="100%" fill="#ffffff"/>
  <text x="70" y="30" font-size="20" font-family="Arial, sans-serif" fill="#111827">PI-NAS 8x8 beam synthesis, theta0=30 deg</text>
  <g font-family="Arial, sans-serif">
    <line x1="70.0" y1="50" x2="70.0" y2="455" stroke="#e5e7eb"/><text x="70.0" y="485" text-anchor="middle" font-size="13" fill="#374151">-90</text><line x1="207.5" y1="50" x2="207.5" y2="455" stroke="#e5e7eb"/><text x="207.5" y="485" text-anchor="middle" font-size="13" fill="#374151">-60</text><line x1="345.0" y1="50" x2="345.0" y2="455" stroke="#e5e7eb"/><text x="345.0" y="485" text-anchor="middle" font-size="13" fill="#374151">-30</text><line x1="482.5" y1="50" x2="482.5" y2="455" stroke="#e5e7eb"/><text x="482.5" y="485" text-anchor="middle" font-size="13" fill="#374151">0</text><line x1="620.0" y1="50" x2="620.0" y2="455" stroke="#e5e7eb"/><text x="620.0" y="485" text-anchor="middle" font-size="13" fill="#374151">30</text><line x1="757.5" y1="50" x2="757.5" y2="455" stroke="#e5e7eb"/><text x="757.5" y="485" text-anchor="middle" font-size="13" fill="#374151">60</text><line x1="895.0" y1="50" x2="895.0" y2="455" stroke="#e5e7eb"/><text x="895.0" y="485" text-anchor="middle" font-size="13" fill="#374151">90</text><line x1="70" y1="455.0" x2="895" y2="455.0" stroke="#e5e7eb"/><text x="58" y="459.0" text-anchor="end" font-size="13" fill="#374151">-60</text><line x1="70" y1="389.7" x2="895" y2="389.7" stroke="#e5e7eb"/><text x="58" y="393.7" text-anchor="end" font-size="13" fill="#374151">-50</text><line x1="70" y1="324.4" x2="895" y2="324.4" stroke="#e5e7eb"/><text x="58" y="328.4" text-anchor="end" font-size="13" fill="#374151">-40</text><line x1="70" y1="259.0" x2="895" y2="259.0" stroke="#e5e7eb"/><text x="58" y="263.0" text-anchor="end" font-size="13" fill="#374151">-30</text><line x1="70" y1="193.7" x2="895" y2="193.7" stroke="#e5e7eb"/><text x="58" y="197.7" text-anchor="end" font-size="13" fill="#374151">-20</text><line x1="70" y1="128.4" x2="895" y2="128.4" stroke="#e5e7eb"/><text x="58" y="132.4" text-anchor="end" font-size="13" fill="#374151">-10</text><line x1="70" y1="63.1" x2="895" y2="63.1" stroke="#e5e7eb"/><text x="58" y="67.1" text-anchor="end" font-size="13" fill="#374151">0</text>
    <line x1="70" y1="455" x2="895" y2="455" stroke="#111827" stroke-width="1.2"/>
    <line x1="70" y1="50" x2="70" y2="455" stroke="#111827" stroke-width="1.2"/>
    <line x1="620.00" y1="50" x2="620.00" y2="455" stroke="#ef4444" stroke-width="1.4" stroke-dasharray="6 5"/>
    <line x1="70" y1="193.71" x2="895" y2="193.71" stroke="#0f766e" stroke-width="1.4" stroke-dasharray="7 5"/>
    <polyline points="70.00,266.38 71.15,266.38 72.29,266.39 73.44,266.41 74.58,266.43 75.73,266.46 76.88,266.49 78.02,266.53 79.17,266.57 80.31,266.62 81.46,266.67 82.60,266.72 83.75,266.77 84.90,266.82 86.04,266.88 87.19,266.93 88.33,266.98 89.48,267.02 90.62,267.06 91.77,267.09 92.92,267.11 94.06,267.13 95.21,267.13 96.35,267.12 97.50,267.09 98.65,267.05 99.79,266.98 100.94,266.90 102.08,266.79 103.23,266.66 104.38,266.50 105.52,266.31 106.67,266.10 107.81,265.85 108.96,265.57 110.10,265.26 111.25,264.91 112.40,264.53 113.54,264.10 114.69,263.65 115.83,263.15 116.98,262.62 118.12,262.05 119.27,261.44 120.42,260.80 121.56,260.12 122.71,259.40 123.85,258.66 125.00,257.88 126.15,257.07 127.29,256.23 128.44,255.37 129.58,254.48 130.73,253.57 131.88,252.64 133.02,251.69 134.17,250.72 135.31,249.74 136.46,248.74 137.60,247.74 138.75,246.73 139.90,245.70 141.04,244.68 142.19,243.65 143.33,242.62 144.48,241.59 145.62,240.56 146.77,239.54 147.92,238.52 149.06,237.51 150.21,236.50 151.35,235.51 152.50,234.52 153.65,233.54 154.79,232.58 155.94,231.63 157.08,230.69 158.23,229.77 159.38,228.87 160.52,227.98 161.67,227.11 162.81,226.25 163.96,225.42 165.10,224.60 166.25,223.81 167.40,223.03 168.54,222.28 169.69,221.55 170.83,220.84 171.98,220.15 173.12,219.49 174.27,218.85 175.42,218.24 176.56,217.65 177.71,217.08 178.85,216.54 180.00,216.03 181.15,215.55 182.29,215.09 183.44,214.66 184.58,214.26 185.73,213.89 186.88,213.54 188.02,213.23 189.17,212.95 190.31,212.70 191.46,212.48 192.60,212.30 193.75,212.15 194.90,212.03 196.04,211.95 197.19,211.90 198.33,211.89 199.48,211.92 200.62,211.98 201.77,212.08 202.92,212.23 204.06,212.42 205.21,212.64 206.35,212.92 207.50,213.23 208.65,213.59 209.79,214.00 210.94,214.46 212.08,214.97 213.23,215.54 214.38,216.15 215.52,216.83 216.67,217.56 217.81,218.35 218.96,219.20 220.10,220.12 221.25,221.11 222.40,222.17 223.54,223.30 224.69,224.51 225.83,225.80 226.98,227.18 228.12,228.64 229.27,230.20 230.42,231.86 231.56,233.62 232.71,235.49 233.85,237.47 235.00,239.57 236.15,241.80 237.29,244.16 238.44,246.66 239.58,249.30 240.73,252.08 241.88,255.01 243.02,258.08 244.17,261.27 245.31,264.57 246.46,267.95 247.60,271.35 248.75,274.68 249.90,277.85 251.04,280.69 252.19,283.03 253.33,284.69 254.48,285.49 255.62,285.34 256.77,284.22 257.92,282.25 259.06,279.56 260.21,276.35 261.35,272.81 262.50,269.07 263.65,265.27 264.79,261.49 265.94,257.78 267.08,254.17 268.23,250.70 269.38,247.37 270.52,244.20 271.67,241.17 272.81,238.29 273.96,235.56 275.10,232.96 276.25,230.50 277.40,228.17 278.54,225.96 279.69,223.88 280.83,221.91 281.98,220.04 283.12,218.29 284.27,216.63 285.42,215.08 286.56,213.62 287.71,212.25 288.85,210.97 290.00,209.78 291.15,208.67 292.29,207.64 293.44,206.70 294.58,205.83 295.73,205.05 296.88,204.34 298.02,203.70 299.17,203.14 300.31,202.66 301.46,202.24 302.60,201.90 303.75,201.64 304.90,201.44 306.04,201.32 307.19,201.27 308.33,201.29 309.48,201.38 310.62,201.55 311.77,201.79 312.92,202.11 314.06,202.50 315.21,202.97 316.35,203.52 317.50,204.15 318.65,204.86 319.79,205.64 320.94,206.52 322.08,207.48 323.23,208.53 324.38,209.67 325.52,210.90 326.67,212.24 327.81,213.67 328.96,215.21 330.10,216.86 331.25,218.62 332.40,220.50 333.54,222.51 334.69,224.65 335.83,226.93 336.98,229.36 338.12,231.95 339.27,234.70 340.42,237.64 341.56,240.77 342.71,244.12 343.85,247.70 345.00,251.53 346.15,255.64 347.29,260.07 348.44,264.85 349.58,270.03 350.73,275.67 351.88,281.84 353.02,288.63 354.17,296.17 355.31,304.61 356.46,314.15 357.60,325.02 358.75,337.48 359.90,351.51 361.04,365.87 362.19,375.84 363.33,374.85 364.48,364.96 365.62,353.04 366.77,342.22 367.92,333.06 369.06,325.42 370.21,319.06 371.35,313.77 372.50,309.36 373.65,305.70 374.79,302.69 375.94,300.26 377.08,298.34 378.23,296.88 379.38,295.86 380.52,295.24 381.67,294.99 382.81,295.08 383.96,295.50 385.10,296.21 386.25,297.18 387.40,298.35 388.54,299.65 389.69,300.98 390.83,302.22 391.98,303.18 393.12,303.68 394.27,303.52 395.42,302.53 396.56,300.62 397.71,297.82 398.85,294.24 400.00,290.06 401.15,285.46 402.29,280.62 403.44,275.69 404.58,270.77 405.73,265.94 406.88,261.25 408.02,256.73 409.17,252.39 410.31,248.24 411.46,244.29 412.60,240.53 413.75,236.95 414.90,233.56 416.04,230.34 417.19,227.30 418.33,224.41 419.48,221.69 420.62,219.12 421.77,216.69 422.92,214.40 424.06,212.25 425.21,210.24 426.35,208.35 427.50,206.58 428.65,204.94 429.79,203.42 430.94,202.01 432.08,200.72 433.23,199.54 434.38,198.47 435.52,197.51 436.67,196.66 437.81,195.91 438.96,195.27 440.10,194.74 441.25,194.32 442.40,194.00 443.54,193.79 444.69,193.69 445.83,193.70 446.98,193.81 448.12,194.04 449.27,194.39 450.42,194.85 451.56,195.43 452.71,196.13 453.85,196.95 455.00,197.91 456.15,199.00 457.29,200.24 458.44,201.61 459.58,203.14 460.73,204.84 461.88,206.70 463.02,208.74 464.17,210.98 465.31,213.42 466.46,216.09 467.60,218.99 468.75,222.16 469.90,225.63 471.04,229.42 472.19,233.57 473.33,238.13 474.48,243.17 475.62,248.77 476.77,255.02 477.92,262.06 479.06,270.09 480.21,279.37 481.35,290.31 482.50,303.50 483.65,319.88 484.79,340.55 485.94,363.34 487.08,367.88 488.23,348.36 489.38,328.42 490.52,312.90 491.67,300.87 492.81,291.31 493.96,283.57 495.10,277.22 496.25,271.98 497.40,267.65 498.54,264.10 499.69,261.24 500.83,258.98 501.98,257.30 503.12,256.15 504.27,255.52 505.42,255.39 506.56,255.76 507.71,256.64 508.85,258.02 510.00,259.91 511.15,262.30 512.29,265.13 513.44,268.29 514.58,271.53 515.73,274.42 516.88,276.27 518.02,276.25 519.17,273.75 520.31,268.78 521.46,261.94 522.60,254.04 523.75,245.77 524.90,237.53 526.04,229.56 527.19,221.96 528.33,214.77 529.48,207.97 530.62,201.55 531.77,195.48 532.92,189.74 534.06,184.30 535.21,179.14 536.35,174.23 537.50,169.55 538.65,165.09 539.79,160.83 540.94,156.75 542.08,152.84 543.23,149.09 544.38,145.49 545.52,142.03 546.67,138.71 547.81,135.51 548.96,132.43 550.10,129.46 551.25,126.60 552.40,123.84 553.54,121.18 554.69,118.61 555.83,116.13 556.98,113.73 558.12,111.42 559.27,109.18 560.42,107.02 561.56,104.93 562.71,102.91 563.85,100.97 565.00,99.08 566.15,97.26 567.29,95.51 568.44,93.81 569.58,92.17 570.73,90.59 571.88,89.07 573.02,87.59 574.17,86.18 575.31,84.81 576.46,83.49 577.60,82.22 578.75,81.00 579.90,79.83 581.04,78.70 582.19,77.62 583.33,76.59 584.48,75.59 585.62,74.64 586.77,73.73 587.92,72.87 589.06,72.04 590.21,71.25 591.35,70.51 592.50,69.80 593.65,69.13 594.79,68.49 595.94,67.90 597.08,67.34 598.23,66.82 599.38,66.33 600.52,65.88 601.67,65.46 602.81,65.08 603.96,64.73 605.10,64.42 606.25,64.14 607.40,63.89 608.54,63.68 609.69,63.49 610.83,63.34 611.98,63.23 613.12,63.14 614.27,63.09 615.42,63.06 616.56,63.07 617.71,63.11 618.85,63.18 620.00,63.28 621.15,63.41 622.29,63.58 623.44,63.77 624.58,63.99 625.73,64.24 626.88,64.52 628.02,64.83 629.17,65.17 630.31,65.54 631.46,65.94 632.60,66.37 633.75,66.83 634.90,67.32 636.04,67.83 637.19,68.38 638.33,68.96 639.48,69.56 640.62,70.20 641.77,70.86 642.92,71.56 644.06,72.28 645.21,73.03 646.35,73.82 647.50,74.63 648.65,75.47 649.79,76.35 650.94,77.25 652.08,78.18 653.23,79.15 654.38,80.15 655.52,81.17 656.67,82.23 657.81,83.32 658.96,84.45 660.10,85.60 661.25,86.79 662.40,88.01 663.54,89.27 664.69,90.55 665.83,91.88 666.98,93.24 668.12,94.63 669.27,96.06 670.42,97.53 671.56,99.03 672.71,100.58 673.85,102.16 675.00,103.78 676.15,105.44 677.29,107.15 678.44,108.90 679.58,110.69 680.73,112.52 681.88,114.41 683.02,116.34 684.17,118.32 685.31,120.35 686.46,122.44 687.60,124.57 688.75,126.77 689.90,129.03 691.04,131.34 692.19,133.73 693.33,136.17 694.48,138.69 695.62,141.29 696.77,143.96 697.92,146.72 699.06,149.57 700.21,152.50 701.35,155.54 702.50,158.69 703.65,161.95 704.79,165.34 705.94,168.86 707.08,172.53 708.23,176.35 709.38,180.36 710.52,184.56 711.67,188.98 712.81,193.64 713.96,198.58 715.10,203.84 716.25,209.47 717.40,215.53 718.54,222.11 719.69,229.31 720.83,237.28 721.98,246.23 723.12,256.47 724.27,268.49 725.42,283.11 726.56,301.83 727.71,327.87 728.85,367.05 730.00,376.52 731.15,337.50 732.29,311.54 733.44,293.90 734.58,280.82 735.73,270.56 736.88,262.20 738.02,255.21 739.17,249.26 740.31,244.11 741.46,239.61 742.60,235.65 743.75,232.13 744.90,228.98 746.04,226.17 747.19,223.63 748.33,221.35 749.48,219.28 750.62,217.42 751.77,215.73 752.92,214.21 754.06,212.83 755.21,211.58 756.35,210.46 757.50,209.45 758.65,208.55 759.79,207.75 760.94,207.04 762.08,206.41 763.23,205.87 764.38,205.40 765.52,205.00 766.67,204.67 767.81,204.40 768.96,204.20 770.10,204.05 771.25,203.96 772.40,203.92 773.54,203.93 774.69,203.99 775.83,204.10 776.98,204.24 778.12,204.44 779.27,204.67 780.42,204.94 781.56,205.25 782.71,205.60 783.85,205.98 785.00,206.40 786.15,206.85 787.29,207.33 788.44,207.84 789.58,208.38 790.73,208.95 791.88,209.55 793.02,210.17 794.17,210.82 795.31,211.50 796.46,212.20 797.60,212.93 798.75,213.67 799.90,214.44 801.04,215.23 802.19,216.04 803.33,216.87 804.48,217.72 805.62,218.59 806.77,219.48 807.92,220.38 809.06,221.29 810.21,222.23 811.35,223.17 812.50,224.13 813.65,225.10 814.79,226.09 815.94,227.08 817.08,228.08 818.23,229.09 819.38,230.11 820.52,231.14 821.67,232.17 822.81,233.20 823.96,234.24 825.10,235.28 826.25,236.32 827.40,237.36 828.54,238.40 829.69,239.43 830.83,240.46 831.98,241.48 833.12,242.50 834.27,243.50 835.42,244.50 836.56,245.49 837.71,246.46 838.85,247.41 840.00,248.35 841.15,249.28 842.29,250.18 843.44,251.06 844.58,251.93 845.73,252.76 846.88,253.58 848.02,254.37 849.17,255.14 850.31,255.87 851.46,256.58 852.60,257.27 853.75,257.92 854.90,258.55 856.04,259.14 857.19,259.71 858.33,260.25 859.48,260.76 860.62,261.24 861.77,261.70 862.92,262.12 864.06,262.52 865.21,262.89 866.35,263.24 867.50,263.56 868.65,263.86 869.79,264.13 870.94,264.39 872.08,264.62 873.23,264.83 874.38,265.03 875.52,265.20 876.67,265.36 877.81,265.51 878.96,265.64 880.10,265.75 881.25,265.86 882.40,265.95 883.54,266.03 884.69,266.10 885.83,266.16 886.98,266.22 888.12,266.26 889.27,266.30 890.42,266.33 891.56,266.35 892.71,266.37 893.85,266.38 895.00,266.38" fill="none" stroke="#2563eb" stroke-width="2.2"/>
    <text x="460.0" y="508" text-anchor="middle" font-size="15" fill="#111827">Theta (deg), phi=0 deg</text>
    <text x="18" y="260.0" transform="rotate(-90 18 260.0)" text-anchor="middle" font-size="15" fill="#111827">Normalized pattern (dB)</text>
    <text x="628.0" y="68" font-size="13" fill="#ef4444">target 30 deg</text>
    <text x="760" y="185.7" font-size="13" fill="#0f766e">SLL target -20 dB</text>
  </g>
</svg>
